<svg xmlns="http://www.w3.org/2000/svg" viewBox="0 0 233.89 226.75"><defs><style>.cls-1{fill:#35407f;}.cls-2{fill:#44508d;}.cls-3{fill:#f0a65c;}.cls-4{fill:#424a86;}.cls-5{fill:#333568;}.cls-6{fill:#f9b84d;}.cls-7{fill:#3c3b6b;}.cls-8{fill:#f1c149;}.cls-9{fill:#f4f3f2;}.cls-10{fill:#3f4177;}.cls-11{fill:#313365;}.cls-12{fill:#98a9f4;}.cls-13{fill:#cad1ed;}</style></defs><title>Asset 2</title><g id="Layer_2" data-name="Layer 2"><g id="Layer_9" data-name="Layer 9"><polygon class="cls-1" points="40.93 34.3 23.15 82.31 81.82 82.31 87.75 80.08 105.08 58.75 118.12 39.34 64.78 23.49 40.93 34.3"/><path class="cls-2" d="M83.4,11.94S59,5.71,40.37,18.31C25.48,29.56,24.74,33.86,26.22,45.71s15.7,19.26,27,18.37,8,.3,13.93-2.37l-4-.56s-2-.34-1.93-2.09c0,0-12.43-2-15-11.87S67.7,35.08,69.7,35.75,58,51.43,57.15,58s-.34,9-1.78,12.13c-1.12,2.45-6.78,8-6.78,8l-2,4.23H84.37s5.55-28,13.77-27.78a27.36,27.36,0,0,0,6.23,4s9.11,18.89,38.44,23.78l5.33-5.78s-25.33-14.45-21.77-31.11c.44-18.23-20.89-26-20.89-26s4.44,3.11,1.89,4.22-12.56.22-18.45-4.78S83.4,11.94,83.4,11.94Z" transform="translate(-0.25)"/><path class="cls-3" d="M102.22,8.84c.3-2.22,1.81-4.72,3.92-4.83s7-1.34,8.33,1.77S115,15,113.31,16.45s-6.67,2.72-9,.83S101.92,11.06,102.22,8.84Z" transform="translate(-0.25)"/><path class="cls-3" d="M83.4,11.94S81,18.75,89,22.82s17.78,4.82,19,4.23,4.15-3,2.08-4.74a29.78,29.78,0,0,0-4.89-3.26,5.57,5.57,0,0,1,.07-5c1.41-2.67,1.86-2.07,1.86-2.07l-3.19-2.38s-4.15,5.41-10.37,5A24.7,24.7,0,0,1,83.4,11.94Z" transform="translate(-0.25)"/><path class="cls-4" d="M106.13,6.65a.82.82,0,0,1,.23-.34,1.69,1.69,0,0,1,2.12-.06c2.78,1.79,5,1.28,6,3.31a4.51,4.51,0,0,1,.4,2.63c0,.19-.16.66,0,.77s.25,0,.3,0a6.84,6.84,0,0,0,3.3-4.82,6.72,6.72,0,0,0-.94-4.37A7.43,7.43,0,0,0,113.7.81c-3.35-1.36-7.2-.92-9.32.68a4.55,4.55,0,0,0-1.51,1.8,5.08,5.08,0,0,0-.34,2.47,5.93,5.93,0,0,0,.41,1.81,3.72,3.72,0,0,0,.81,1.26,3.74,3.74,0,0,0,.84.59,1.56,1.56,0,0,0,.62.22.88.88,0,0,0,.63-.17.69.69,0,0,0,.13-.23.4.4,0,0,0,0-.13c0-.52,0-1,.06-1.55A3,3,0,0,1,106.13,6.65Z" transform="translate(-0.25)"/><path class="cls-5" d="M82.19,44.56,62.62,67.68a1.84,1.84,0,0,0,1.06,3l24.67,4.66a4.63,4.63,0,0,0,4.53-1.72L111.08,50a2,2,0,0,0-1.35-3.27L84.89,43.52A3,3,0,0,0,82.19,44.56Z" transform="translate(-0.25)"/><path class="cls-6" d="M62.25,59.19l5.89-4.44h7.11s1.23,2.89,0,3.11-4.33-.33-5.11.11-1.55,2.56-2.66,3.45S62.25,59.19,62.25,59.19Z" transform="translate(-0.25)"/><path class="cls-7" d="M165.89,191.27c0,3.81-2.75,7.09-6.17,7.32L7.57,208.68a7,7,0,0,1-3-.46,6.92,6.92,0,0,1-4.3-6.65L1.64,95A7.51,7.51,0,0,1,9.07,87.6l150.49,0c3.39,0,6.14,3,6.15,6.78Zm-7.09.48a1.31,1.31,0,0,0,.37-1q-.22-48.11-.46-96.21l-149-.29a1.7,1.7,0,0,0-.88.48,1.8,1.8,0,0,0-.49,1.12q-.48,50.13-1,100.28a5.12,5.12,0,0,0,5.45,5.17l145.15-9.16A1.35,1.35,0,0,0,158.8,191.75Z" transform="translate(-0.25)"/><path class="cls-8" d="M189.45,106.29l-162.58,2a3.1,3.1,0,0,1-3.18-3l-.63-24.49a3,3,0,0,1,3-3l162.66.1a2.82,2.82,0,0,1,2.76,2.78l.56,22.76A2.71,2.71,0,0,1,189.45,106.29Z" transform="translate(-0.25)"/><circle class="cls-9" cx="30.26" cy="82.45" r="2.52"/><circle class="cls-9" cx="36.34" cy="82.45" r="2.52"/><circle class="cls-9" cx="42.41" cy="82.45" r="2.52"/><path class="cls-3" d="M148,76.34s5.61-1.78,7.05-.55,3.56,4.61,3.61,5.77-2,1.45-2.77.73-3.56-4.06-5.23-4a19.52,19.52,0,0,1-4.33-.5Z" transform="translate(-0.25)"/><path class="cls-10" d="M70.1,220.83,7.53,209.71a.23.23,0,0,1,0-.46l155.27-10.19.4,0,63.22,8.75a.69.69,0,0,1,0,1.37L71.69,220.91A6.51,6.51,0,0,1,70.1,220.83Z" transform="translate(-0.25)"/><path class="cls-7" d="M1.92,208.7v5.83l68,12.22,162.45-13.56s4-3.11,0-5.33l-67.56-10.22Z" transform="translate(-0.25)"/><polygon class="cls-11" points="26.67 209.31 66.11 215.64 192.78 205.64 161 201.33 26.67 209.31"/><polygon class="cls-12" points="48.19 113.81 48.19 165.42 153.67 162.16 153.67 112.08 48.19 113.81"/><polygon class="cls-13" points="18.56 128.97 18.56 172.82 110.31 170.16 110.55 127.19 18.56 128.97"/><polygon class="cls-13" points="18.56 179.94 18.56 190.01 149.82 183.19 149.82 172.82 18.56 179.94"/></g></g></svg>