<svg xmlns="http://www.w3.org/2000/svg" viewBox="0 0 525.3 690.87"><defs><style>.cls-1,.cls-11,.cls-4{fill:#fdfeff;}.cls-10,.cls-2,.cls-3{fill:none;}.cls-2{stroke:#141212;}.cls-10,.cls-11,.cls-12,.cls-2,.cls-3,.cls-4,.cls-5,.cls-6,.cls-7,.cls-9{stroke-miterlimit:10;}.cls-12,.cls-2,.cls-3,.cls-4,.cls-6,.cls-7,.cls-9{stroke-width:3px;}.cls-10,.cls-11,.cls-12,.cls-3,.cls-4,.cls-5,.cls-6,.cls-7,.cls-9{stroke:#151313;}.cls-12,.cls-5{fill:#ebc250;}.cls-10,.cls-11,.cls-5{stroke-width:2px;}.cls-6{fill:#44508e;}.cls-7,.cls-8{fill:#e9eefb;}.cls-9{fill:#d6e1f5;}</style></defs><title>Asset 2</title><g id="Layer_2" data-name="Layer 2"><g id="Layer_8" data-name="Layer 8"><g id="Layer_9" data-name="Layer 9"><path class="cls-1" d="M462.32,135.72V272.61s-.89,64-88.89,81.78H227.22c-88-17.78-88.89-81.78-88.89-81.78V135.72c40-136,162-134.22,162-134.22S422.32-.28,462.32,135.72Z"/><path class="cls-2" d="M300.33,354.39H227.22c-88-17.78-88.89-81.78-88.89-81.78V135.72c40-136,162-134.22,162-134.22s122-1.78,162,134.22V272.61s-.89,64-88.89,81.78Z"/><path class="cls-1" d="M454,454.6c1.1,43.3-6.67,84.75-21.51,125.41-10.95,30-22.49,57.42-48.92,76.83l-.54.39c-31.75,23-72.6,35.82-111.86,31.21a132,132,0,0,1-47.07-15.26l0-.08q-.15-14-.31-28.1l-1-88.75c-.36-32.69-3.39-66.82-.57-99.37,1.36-15.66,7-46.15-15.93-49.49-26.66-3.89-57.58-32.26-57.58-32.26a81,81,0,0,1,15.36-19.4,65.25,65.25,0,0,1,13.78-9.64l11-5.7H189l213.64,6.28c23.9,15,42.26,41.39,48.79,68.69C454.54,428.36,453.61,441.37,454,454.6Z"/><path class="cls-1" d="M223.78,645q.16,14.06.31,28.1l0,.08c-34.34-18.47-62.62-50.69-77.52-85a217.77,217.77,0,0,1-14.32-48.47A279.72,279.72,0,0,1,128,497c-.78-34.35.48-72.52,12.78-105a115.15,115.15,0,0,1,7.94-16.86s30.92,28.37,57.58,32.26c22.92,3.34,17.29,33.83,15.93,49.49-2.82,32.55.21,66.68.57,99.37Z"/><path class="cls-3" d="M224.05,673.18a132,132,0,0,0,47.07,15.26c39.26,4.61,80.11-8.2,111.86-31.21l.54-.39C410,637.43,421.49,610,432.44,580,447.28,539.35,455.05,497.9,454,454.6c-.34-13.23.59-26.24-2.52-39.24-6.53-27.3-24.89-53.66-48.79-68.69L189,340.39h-.13l-11,5.7a65.25,65.25,0,0,0-13.78,9.64,81,81,0,0,0-15.36,19.4A115.15,115.15,0,0,0,140.8,392C128.5,424.43,127.24,462.6,128,497a279.72,279.72,0,0,0,4.19,42.74,217.77,217.77,0,0,0,14.32,48.47C161.43,622.49,189.71,654.71,224.05,673.18Z"/><path class="cls-3" d="M148.74,375.13s30.92,28.37,57.58,32.26c22.92,3.34,17.29,33.83,15.93,49.49-2.82,32.55.21,66.68.57,99.37l1,88.75q.16,14.06.31,28.1"/><rect class="cls-4" x="50.94" y="263.97" width="21.67" height="132.36" transform="translate(290.68 84.35) rotate(53.56)"/><path class="cls-5" d="M429.14,186.54v70.52s-17.78,51-57.48,55.11H288l-.1-.13a122.83,122.83,0,0,0,36.64-141.5h89.83S429.14,173.5,429.14,186.54Z"/><path class="cls-5" d="M288,312.17h83.71c39.7-4.15,57.48-55.11,57.48-55.11V186.54c0-13-14.82-16-14.82-16H323.21"/><circle class="cls-6" cx="367.21" cy="216.61" r="18.22"/><path class="cls-7" d="M476.67,483.77a13.53,13.53,0,0,1,2.68-.52c9-.81,18.38,0,27.42,0,0,0,16,.89,16.88,15.11s-1.77,84.44-23.55,94.22c0,0-19.11-14.22-33.33-8.89A328.53,328.53,0,0,1,461,549.87c-1-8.32-1.95-16.73-1.52-25.12a90.38,90.38,0,0,1,2.5-15.84c1.12-4.81,2-10,4.06-14.49C468.24,489.58,471.63,485.28,476.67,483.77Z"/><path class="cls-3" d="M189,340.4l-1.18.61"/><path class="cls-6" d="M465.28,586.09s-5.92,5.63-3.55,12.45a16.68,16.68,0,0,0,3.34,5.65c1.28,1.43,3.18,2.2,4.39,3.61,2.28,2.65,2.24,9.85,2.42,13.19a33.12,33.12,0,0,1-1.66,12.26,6.47,6.47,0,0,0-.29,1.36c-.16,2.47,3,5.74,4.54,7.48,1.91,2.17,4.45,4.64,7.5,4.82,6.48.38,12.25-9.73,14.28-14.66a54.94,54.94,0,0,0,3.59-15,87.3,87.3,0,0,0,.48-10.22c0-2,.75-10.48-.67-11.75A44.24,44.24,0,0,0,465.28,586.09Z"/><path class="cls-8" d="M475.54,643.24l-1.66,5.07A13.15,13.15,0,0,1,463.69,657a4.39,4.39,0,0,1-1.25.08c-3-.38-5.65-4.07-5.89-6.88-.39-4.52,5.92-10,9.4-12l.74-.4c1.19-.62,3.37-1.67,3.62-1.35Z"/><path class="cls-3" d="M466.69,637.79l-.74.4c-3.48,2.07-9.79,7.53-9.4,12,.24,2.81,2.85,6.5,5.89,6.88a4.39,4.39,0,0,0,1.25-.08,13.15,13.15,0,0,0,10.19-8.73l1.66-5.07-5.23-6.8C470.06,636.12,467.88,637.17,466.69,637.79Z"/><path class="cls-7" d="M482.77,648.91l-11.56,17.33s-11.26,4.74-9-6.07,13.37-15.71,13.37-15.71S483.65,646.09,482.77,648.91Z"/><path class="cls-8" d="M459.41,600.91c2.52-2.59,12.39,6.81,11.28,9.35s-12.51,11.09-12.51,11.09c-13.63,2.41-8-11-8-11Z"/><path class="cls-3" d="M459.41,600.91l-9.23,9.48s-5.63,13.37,8,11c0,0,11.4-8.55,12.51-11.09S461.93,598.32,459.41,600.91Z"/><path class="cls-6" d="M444.1,430.83s30.36-5.71,53.36,27.7a17.51,17.51,0,0,1,3.06,9.94V482.9H482.83v-4.24A24.88,24.88,0,0,0,473,458.74c-6.05-4.53-15.3-8.16-28.9-6.13Z"/><ellipse class="cls-6" cx="436.54" cy="436.72" rx="6.24" ry="29.33"/><path class="cls-6" d="M119.57,436.72s16.08.78,21.42-4.11v20s-25.63,5.11-37.19,3.26C103.8,455.87,108.41,440.15,119.57,436.72Z"/><ellipse class="cls-6" cx="146.33" cy="438.28" rx="8" ry="30.89"/><path class="cls-3" d="M431.05,374.61s-25.62,23.63-52.87,29-21.34,29-21.34,29L356.3,673.1"/><path class="cls-7" d="M45.43,370.39s-5.33,30.22,0,48.89,25.78,41.78,25.78,41.78,42.67,16.89,48-29.34-50.67-72-50.67-72S61,373.61,45.43,370.39Z"/><rect class="cls-9" x="195.65" y="432.61" width="12" height="36.56"/><rect class="cls-9" x="371.21" y="432.61" width="13.33" height="36.56"/><path class="cls-3" d="M423.83,61.63s-22.55.61-26.1,23.72,0,82.37,0,82.37"/><path class="cls-9" d="M459.41,186.69s-11.31-3.86-11.31,11.7v43s-2.37,8.74,14.22,11.71v-66.8Z"/><path class="cls-3" d="M186.41,53.35s24.36.89,24.36,20.74V94h0"/><rect class="cls-9" x="374.62" y="98.39" width="13.63" height="36.74"/><path class="cls-3" d="M67.47,338a21.62,21.62,0,0,1,.41,4.21,22,22,0,0,1-32.22,19.49"/><path class="cls-3" d="M287.69,312.17s69.92-49.64,36.79-141.63"/><rect class="cls-9" x="10.77" y="334.24" width="22.81" height="11.26" rx="4.51" transform="translate(269.81 106.03) rotate(50.37)"/><rect class="cls-9" x="18.75" y="327.13" width="22.81" height="11.26" rx="4.51" transform="translate(267.22 97.3) rotate(50.37)"/><rect class="cls-9" x="27.56" y="319.85" width="22.81" height="11.26" rx="4.51" transform="translate(264.8 87.88) rotate(50.37)"/><rect class="cls-9" x="35.79" y="313.52" width="22.81" height="11.26" rx="4.51" transform="translate(262.91 79.25) rotate(50.37)"/><path class="cls-10" d="M324.49,170.54A122.83,122.83,0,0,1,287.85,312l-.16.13A122.66,122.66,0,1,1,324.06,169.5C324.21,169.85,324.35,170.19,324.49,170.54Z"/><path class="cls-11" d="M324.06,169.5c.15.35.29.69.43,1A122.83,122.83,0,0,1,287.85,312l-.16.13A122.66,122.66,0,1,1,324.06,169.5Z"/><circle class="cls-12" cx="210.77" cy="216.61" r="104.44"/><path class="cls-10" d="M324.49,170.54A122.83,122.83,0,0,1,287.85,312l-.16.13A122.66,122.66,0,1,1,324.06,169.5C324.21,169.85,324.35,170.19,324.49,170.54Z"/><path class="cls-11" d="M324.06,169.5c.15.35.29.69.43,1A122.83,122.83,0,0,1,287.85,312l-.16.13A122.66,122.66,0,1,1,324.06,169.5Z"/><circle class="cls-12" cx="210.77" cy="216.61" r="104.44"/><circle class="cls-6" cx="210.77" cy="216.61" r="39.56"/></g></g></g></svg>