<svg width="664" height="791" viewBox="0 0 664 791" fill="none" xmlns="http://www.w3.org/2000/svg">
<g clip-path="url(#clip0_272_739)">
<path d="M502.047 252.632H409.423C409.423 233.737 394.693 217.171 372.585 207.923L429.501 120.32C434.996 121.238 440.64 120.235 445.482 117.481C450.325 114.727 454.07 110.389 456.088 105.199C458.105 100.008 458.273 94.281 456.561 88.9816C454.849 83.6822 451.364 79.134 446.69 76.1023C442.017 73.0706 436.441 71.7407 430.901 72.3362C425.362 72.9318 420.197 75.4166 416.275 79.3723C412.354 83.328 409.915 88.5132 409.371 94.0552C408.826 99.5971 410.208 105.157 413.284 109.8L353.222 202.149C339.182 199.461 324.76 199.461 310.721 202.149L202.838 36.0618C205.799 31.5002 207.103 26.0611 206.533 20.6537C205.962 15.2464 203.552 10.1985 199.706 6.3539C195.859 2.50929 190.808 0.100959 185.398 -0.468513C179.988 -1.03799 174.546 0.265914 169.982 3.22522C165.419 6.18453 162.009 10.6199 160.325 15.7899C158.64 20.9599 158.782 26.5512 160.727 31.6292C162.672 36.7071 166.301 40.964 171.009 43.6882C175.717 46.4124 181.218 47.4388 186.593 46.5959L291.415 207.923C269.307 217.171 254.549 233.737 254.549 252.632H161.953C119 252.632 77.807 269.687 47.4349 300.043C17.0629 330.4 0 371.572 0 414.503L0 592.553C0.00244271 628.436 11.9292 663.301 33.9073 691.673C55.8853 720.046 86.6696 740.318 121.425 749.307C120.696 762.485 120.324 791 130.921 791C140.273 791 155.789 768.703 164.756 754.424H499.244C508.211 768.717 523.712 791 533.079 791C543.661 791 543.304 762.485 542.575 749.307C577.33 740.318 608.115 720.046 630.093 691.673C652.071 663.301 663.998 628.436 664 592.553V414.503C664 393.246 659.811 372.197 651.672 352.558C643.533 332.919 631.604 315.074 616.565 300.043C601.526 285.012 583.673 273.089 564.024 264.954C544.375 256.819 523.315 252.632 502.047 252.632ZM577.425 685.974H89.4352C65.5248 685.974 46.1477 668.95 46.1477 647.954V350.455C46.1477 329.458 65.5248 312.435 89.4352 312.435H577.425C601.335 312.435 620.712 329.458 620.712 350.455V647.954C620.712 668.922 601.335 685.974 577.425 685.974Z" fill="#EBC250"/>
</g>
<defs>
<clipPath id="clip0_272_739">
<rect width="664" height="791" fill="white"/>
</clipPath>
</defs>
</svg>
