<svg width="58" height="59" viewBox="0 0 58 59" fill="none" xmlns="http://www.w3.org/2000/svg"><defs><style>.cls-1{fill:#fff;stroke:#fff;stroke-miterlimit:10;fill-rule:evenodd;}</style></defs><g id="Layer_2" data-name="Layer 2"><g id="Layer_1-2" data-name="Layer 1"><path class="cls-1" d="M47.84.5a6.6,6.6,0,0,1,6.59,6.59V47.84a6.6,6.6,0,0,1-6.59,6.59H7.09A6.6,6.6,0,0,1,.5,47.84V7.09A6.59,6.59,0,0,1,7.09.5Zm.66,34.83a13.73,13.73,0,0,0-.36-4.18,10.29,10.29,0,0,0-1.65-3.56,8.43,8.43,0,0,0-2.93-2.49,8.9,8.9,0,0,0-4.17-.93,9.71,9.71,0,0,0-3.91.77,9.16,9.16,0,0,0-3,2.09,9.3,9.3,0,0,0-2,3.14,11,11,0,0,0-.69,3.93,11.66,11.66,0,0,0,.67,4,9.29,9.29,0,0,0,1.91,3.12,8.49,8.49,0,0,0,3,2,10.8,10.8,0,0,0,4,.71,9.68,9.68,0,0,0,5.43-1.46,8.56,8.56,0,0,0,3.35-4.84H43.63a3.26,3.26,0,0,1-1.38,1.66,4.54,4.54,0,0,1-2.69.79A4.6,4.6,0,0,1,36.23,39,5.29,5.29,0,0,1,35,35.33ZM19,43.47A13.25,13.25,0,0,0,22.35,43a9.19,9.19,0,0,0,2.94-1.34,6.66,6.66,0,0,0,2.05-2.35,7.08,7.08,0,0,0,.76-3.4,7.26,7.26,0,0,0-1.17-4.16,6.27,6.27,0,0,0-3.56-2.41A6.43,6.43,0,0,0,26,27.23,5.69,5.69,0,0,0,26.9,24a7,7,0,0,0-.59-3,5,5,0,0,0-1.7-2A7.5,7.5,0,0,0,22,17.88a16.08,16.08,0,0,0-3.38-.33H6.4V43.47Zm-.65-11.55a4.8,4.8,0,0,1,3,.85,3.37,3.37,0,0,1,1.13,2.86,3.49,3.49,0,0,1-.35,1.68,2.63,2.63,0,0,1-.92,1,3.88,3.88,0,0,1-1.35.55,7.42,7.42,0,0,1-1.6.16H12.1V31.92Zm23.84-2.81a3.84,3.84,0,0,0-2.91-1.05,4.3,4.3,0,0,0-2.05.43,3.9,3.9,0,0,0-1.31,1,3.64,3.64,0,0,0-.69,1.32A5.77,5.77,0,0,0,35,32.08h8.38a5,5,0,0,0-1.19-3ZM17.44,22a7.06,7.06,0,0,1,1.47.13,3.56,3.56,0,0,1,1.26.45,2.35,2.35,0,0,1,.87.9,3,3,0,0,1,.32,1.49,2.74,2.74,0,0,1-1,2.36,4.17,4.17,0,0,1-2.51.72H12.1V22Zm27-.12V19.29H33.9v2.56Z"/></g></g></svg>