<svg width="58" height="59" viewBox="0 0 58 59" fill="none" xmlns="http://www.w3.org/2000/svg">
<path d="M55.8916 29.8369C55.8961 33.3789 55.1987 36.8867 53.8396 40.1577C52.4805 43.4286 50.4867 46.3977 47.9734 48.8936C45.4806 51.3819 42.5219 53.3547 39.2663 54.699C36.0108 56.0434 32.5222 56.733 29 56.7284C14.1478 56.7284 2.10848 44.6891 2.10848 29.8369C2.09908 22.9416 4.74771 16.308 9.50366 11.3153C12.0131 8.66732 15.0365 6.55921 18.3888 5.12003C21.7411 3.68085 25.3518 2.94085 29 2.94533C32.5222 2.94077 36.0108 3.63037 39.2663 4.97472C42.5219 6.31907 45.4806 8.29181 47.9734 10.7802C50.4867 13.276 52.4805 16.2452 53.8396 19.5161C55.1987 22.787 55.8961 26.2948 55.8916 29.8369V29.8369Z" stroke="white" stroke-width="4" stroke-linecap="round" stroke-linejoin="round"/>
<path d="M55.8917 29.8368C51.9682 29.8368 41.1444 28.3577 31.4567 32.6106C20.9327 37.232 13.313 44.3999 9.99188 48.8585" stroke="white" stroke-width="4" stroke-linecap="round" stroke-linejoin="round"/>
<path d="M18.9156 4.90039C23.1242 8.78487 32.3076 18.6756 35.7229 28.4923C39.1381 38.3104 40.402 50.3821 41.1818 53.8174" stroke="white" stroke-width="4" stroke-linecap="round" stroke-linejoin="round"/>
<path d="M2.31555 26.4752C7.39536 26.7818 20.8425 27.0574 29.4478 23.3827C38.0531 19.708 45.4576 12.9488 47.9976 10.8042" stroke="white" stroke-width="4" stroke-linecap="round" stroke-linejoin="round"/>
<path d="M4.12524 40.0732C6.49481 45.8091 10.7684 50.5532 16.2264 53.5069" stroke="white" stroke-width="4" stroke-linecap="round" stroke-linejoin="round"/>
<path d="M2.10848 29.837C2.09908 22.9417 4.74771 16.3081 9.50366 11.3154" stroke="white" stroke-width="4" stroke-linecap="round" stroke-linejoin="round"/>
<path d="M29.0001 2.94533C25.3519 2.94085 21.7412 3.68084 18.3889 5.12003C15.0365 6.55921 12.0132 8.66731 9.50372 11.3153" stroke="white" stroke-width="4" stroke-linecap="round" stroke-linejoin="round"/>
<path d="M39.7567 5.18262C42.8191 6.52254 45.6054 8.42068 47.9734 10.7801C50.4867 13.2759 52.4805 16.2451 53.8396 19.516C55.1987 22.7869 55.8961 26.2947 55.8916 29.8368C55.8916 33.1485 55.2932 36.319 54.1974 39.2488" stroke="white" stroke-width="4" stroke-linecap="round" stroke-linejoin="round"/>
<path d="M29 56.7284C32.5222 56.733 36.0107 56.0434 39.2663 54.699C42.5218 53.3547 45.4805 51.3819 47.9733 48.8936" stroke="white" stroke-width="4" stroke-linecap="round" stroke-linejoin="round"/>
</svg>
