<svg width="58" height="56" viewBox="0 0 58 56" fill="none" xmlns="http://www.w3.org/2000/svg">
<path fill-rule="evenodd" clip-rule="evenodd" d="M29 0.755371C13.435 0.755371 0.827942 13.3624 0.827942 28.9275C0.827942 41.3936 8.8922 51.9229 20.0906 55.6557C21.4992 55.9022 22.0274 55.0571 22.0274 54.3176C22.0274 53.6485 21.9922 51.4299 21.9922 49.0705C14.914 50.3735 13.0828 47.345 12.5194 45.7603C12.2024 44.9503 10.829 42.4501 9.63172 41.781C8.6457 41.2527 7.23709 39.9498 9.5965 39.9146C11.8151 39.8794 13.3997 41.957 13.928 42.8022C16.4635 47.0632 20.5132 45.8659 22.1331 45.1264C22.3796 43.2952 23.1191 42.0627 23.9291 41.3584C17.6608 40.6541 11.1108 38.2242 11.1108 27.4484C11.1108 24.3847 12.2024 21.8492 13.9984 19.8772C13.7167 19.1729 12.7306 16.2852 14.2801 12.4116C14.2801 12.4116 16.6395 11.6721 22.0274 15.2992C24.2812 14.6653 26.6758 14.3484 29.0705 14.3484C31.4651 14.3484 33.8597 14.6653 36.1135 15.2992C41.5014 11.6368 43.8608 12.4116 43.8608 12.4116C45.4103 16.2852 44.4243 19.1729 44.1425 19.8772C45.9385 21.8492 47.0302 24.3495 47.0302 27.4484C47.0302 38.2595 40.4449 40.6541 34.1767 41.3584C35.1979 42.2388 36.0783 43.9291 36.0783 46.5702C36.0783 50.3382 36.0431 53.3667 36.0431 54.3176C36.0431 55.0571 36.5713 55.9374 37.9799 55.6557C43.5725 53.7675 48.4321 50.1732 51.875 45.3785C55.3178 40.5838 57.1704 34.8302 57.1721 28.9275C57.1721 13.3624 44.5651 0.755371 29 0.755371Z" fill="#FDFDFD"/>
</svg>
