<svg width="62" height="62" viewBox="0 0 62 62" fill="none" xmlns="http://www.w3.org/2000/svg">
<path d="M31 0.891602C22.8336 0.891602 21.8066 0.929218 18.598 1.07216C15.3893 1.22262 13.2038 1.72668 11.2892 2.47148C9.28081 3.22688 7.46169 4.41182 5.95895 5.94345C4.42826 7.44695 3.24347 9.26586 2.48698 11.2737C1.74218 13.1846 1.23436 15.3738 1.08766 18.5712C0.944721 21.7874 0.907104 22.8105 0.907104 30.9883C0.907104 39.1585 0.944721 40.1817 1.08766 43.3903C1.23813 46.5952 1.74218 48.7807 2.48698 50.6954C3.25811 52.674 4.28503 54.3517 5.95895 56.0256C7.62911 57.6995 9.30679 58.7302 11.2854 59.4975C13.2038 60.2423 15.3856 60.7502 18.5905 60.8969C21.8029 61.0398 22.826 61.0774 31 61.0774C39.174 61.0774 40.1934 61.0398 43.4058 60.8969C46.607 60.7464 48.8 60.2423 50.7146 59.4975C52.7217 58.7418 54.5395 57.5568 56.0411 56.0256C57.715 54.3517 58.7419 52.674 59.5131 50.6954C60.2541 48.7807 60.7619 46.5952 60.9124 43.3903C61.0553 40.1817 61.0929 39.1585 61.0929 30.9845C61.0929 22.8105 61.0553 21.7874 60.9124 18.5749C60.7619 15.3738 60.2541 13.1846 59.5131 11.2737C58.7567 9.2658 57.5719 7.44688 56.0411 5.94345C54.5388 4.41125 52.7196 3.22623 50.7109 2.47148C48.7924 1.72668 46.6032 1.21886 43.4021 1.07216C40.1896 0.929218 39.1702 0.891602 30.9925 0.891602H31.0038H31ZM28.3029 6.31585H31.0038C39.0386 6.31585 39.9903 6.34218 43.1613 6.48888C46.0954 6.62054 47.6903 7.11331 48.7511 7.52333C50.1542 8.06876 51.1585 8.72328 52.2118 9.77653C53.265 10.8298 53.9158 11.8304 54.4612 13.2372C54.875 14.2942 55.364 15.8892 55.4956 18.8232C55.6424 21.9943 55.6724 22.9459 55.6724 30.977C55.6724 39.008 55.6424 39.9635 55.4956 43.1345C55.364 46.0686 54.8712 47.6598 54.4612 48.7205C53.9787 50.0272 53.2087 51.2086 52.208 52.1774C51.1547 53.2307 50.1542 53.8815 48.7473 54.4269C47.6941 54.8407 46.0991 55.3297 43.1613 55.4651C39.9903 55.608 39.0386 55.6419 31.0038 55.6419C22.969 55.6419 22.0135 55.608 18.8425 55.4651C15.9084 55.3297 14.3173 54.8407 13.2565 54.4269C11.9493 53.9451 10.7668 53.1765 9.7958 52.1774C8.79427 51.2071 8.02304 50.0245 7.53883 48.7168C7.12881 47.6597 6.63604 46.0648 6.50439 43.1308C6.36144 39.9597 6.33135 39.008 6.33135 30.9695C6.33135 22.9347 6.36144 21.9867 6.50439 18.8157C6.6398 15.8816 7.12881 14.2867 7.54259 13.2259C8.08803 11.8229 8.74255 10.8185 9.7958 9.76525C10.8491 8.712 11.8496 8.06124 13.2565 7.5158C14.3173 7.10203 15.9084 6.61302 18.8425 6.4776C21.6186 6.3497 22.6944 6.31209 28.3029 6.30833V6.31585ZM47.0659 11.3113C46.5916 11.3113 46.1221 11.4047 45.6839 11.5862C45.2458 11.7676 44.8477 12.0336 44.5124 12.369C44.1771 12.7043 43.9111 13.1024 43.7296 13.5405C43.5481 13.9786 43.4547 14.4482 43.4547 14.9224C43.4547 15.3966 43.5481 15.8662 43.7296 16.3043C43.9111 16.7425 44.1771 17.1406 44.5124 17.4759C44.8477 17.8112 45.2458 18.0772 45.6839 18.2587C46.1221 18.4402 46.5916 18.5336 47.0659 18.5336C48.0236 18.5336 48.9421 18.1531 49.6193 17.4759C50.2966 16.7987 50.677 15.8802 50.677 14.9224C50.677 13.9647 50.2966 13.0462 49.6193 12.369C48.9421 11.6917 48.0236 11.3113 47.0659 11.3113ZM31.0038 15.5318C28.954 15.4998 26.9183 15.8759 25.0152 16.6382C23.1121 17.4006 21.3797 18.5338 19.9189 19.9721C18.458 21.4104 17.2978 23.1249 16.5059 25.0158C15.714 26.9067 15.3062 28.9363 15.3062 30.9864C15.3062 33.0365 15.714 35.066 16.5059 36.957C17.2978 38.8479 18.458 40.5624 19.9189 42.0007C21.3797 43.4389 23.1121 44.5722 25.0152 45.3345C26.9183 46.0969 28.954 46.473 31.0038 46.441C35.0608 46.3777 38.9303 44.7216 41.777 41.8302C44.6236 38.9388 46.2191 35.0439 46.2191 30.9864C46.2191 26.9288 44.6236 23.034 41.777 20.1426C38.9303 17.2512 35.0608 15.5951 31.0038 15.5318ZM31.0038 20.9523C33.6645 20.9523 36.2162 22.0093 38.0976 23.8907C39.979 25.7721 41.036 28.3238 41.036 30.9845C41.036 33.6452 39.979 36.197 38.0976 38.0784C36.2162 39.9598 33.6645 41.0167 31.0038 41.0167C28.3431 41.0167 25.7913 39.9598 23.9099 38.0784C22.0285 36.197 20.9716 33.6452 20.9716 30.9845C20.9716 28.3238 22.0285 25.7721 23.9099 23.8907C25.7913 22.0093 28.3431 20.9523 31.0038 20.9523Z" fill="#FDFDFD"/>
</svg>
