<svg width="56" height="56" viewBox="0 0 56 56" fill="none" xmlns="http://www.w3.org/2000/svg">
<path d="M6.72549 0.922363C5.06962 0.934159 3.48491 1.59719 2.314 2.7681C1.14309 3.93901 0.480057 5.52372 0.468262 7.17959V49.7288C0.468262 53.1502 3.30404 55.986 6.72549 55.986H49.2747C52.6961 55.986 55.5319 53.1502 55.5319 49.7288V7.17959C55.5319 3.75814 52.6961 0.922363 49.2747 0.922363H6.72549ZM6.72549 5.92815H49.2747C49.988 5.92815 50.5261 6.46627 50.5261 7.17959V49.7288C50.5261 50.4421 49.988 50.9802 49.2747 50.9802H6.72549C6.56012 50.984 6.3957 50.9542 6.24217 50.8926C6.08863 50.8311 5.94917 50.739 5.83221 50.622C5.71524 50.5051 5.6232 50.3656 5.56164 50.2121C5.50008 50.0585 5.47028 49.8941 5.47405 49.7288V7.17959C5.47405 6.46627 6.01217 5.92815 6.72549 5.92815ZM14.079 10.2306C13.5054 10.2168 12.9349 10.3178 12.4009 10.5277C11.867 10.7377 11.3804 11.0523 10.9698 11.4531C10.5593 11.8538 10.233 12.3327 10.0103 12.8614C9.7875 13.3901 9.67275 13.9581 9.67275 14.5318C9.67275 15.1056 9.7875 15.6735 10.0103 16.2023C10.233 16.731 10.5593 17.2098 10.9698 17.6106C11.3804 18.0114 11.867 18.326 12.4009 18.5359C12.9349 18.7459 13.5054 18.8469 14.079 18.8331C15.2018 18.806 16.2695 18.3409 17.054 17.5372C17.8385 16.7336 18.2777 15.655 18.2777 14.5318C18.2777 13.4087 17.8385 12.3301 17.054 11.5264C16.2695 10.7228 15.2018 10.2577 14.079 10.2306ZM36.6801 21.6488C33.0935 21.6488 30.7082 23.6136 29.7221 25.4807H29.5644V22.1969H22.5237V45.9744H29.8772V34.2409C29.8772 31.1423 30.493 28.1413 34.3349 28.1413C38.1193 28.1413 38.1693 31.6404 38.1693 34.3985V45.9744H45.5203V32.9118C45.5203 26.5194 44.1612 21.6488 36.6826 21.6488H36.6801ZM10.4798 22.1969V45.9744H17.9109V22.1969H10.4798Z" fill="#FDFDFD"/>
</svg>
