<svg width="57" height="47" viewBox="0 0 57 47" fill="none" xmlns="http://www.w3.org/2000/svg">
<path d="M44.3571 10.5H12.6429C11.9419 10.5 11.2697 10.7739 10.7741 11.2615C10.2784 11.7491 10 12.4104 10 13.1V33.9C10 34.5896 10.2784 35.2509 10.7741 35.7385C11.2697 36.2261 11.9419 36.5 12.6429 36.5H44.3571C45.0581 36.5 45.7303 36.2261 46.2259 35.7385C46.7216 35.2509 47 34.5896 47 33.9V13.1C47 12.4104 46.7216 11.7491 46.2259 11.2615C45.7303 10.7739 45.0581 10.5 44.3571 10.5ZM41.45 13.1L28.5 21.914L15.55 13.1H41.45ZM12.6429 33.9V14.283L27.7468 24.566C27.968 24.717 28.2308 24.7979 28.5 24.7979C28.7692 24.7979 29.032 24.717 29.2532 24.566L44.3571 14.283V33.9H12.6429Z" fill="black"/>
</svg>
