<svg width="58" height="41" viewBox="0 0 58 41" fill="none" xmlns="http://www.w3.org/2000/svg">
<path d="M56.6097 6.68009C56.2817 5.4793 55.6385 4.38426 54.7446 3.50455C53.8507 2.62484 52.7374 1.99132 51.5161 1.66739C47.0206 0.479004 29 0.479004 29 0.479004C29 0.479004 10.9794 0.479004 6.48389 1.66107C5.26207 1.98395 4.14819 2.61712 3.25412 3.49699C2.36004 4.37686 1.71724 5.47246 1.39028 6.67376C0.187622 11.0986 0.187622 20.3275 0.187622 20.3275C0.187622 20.3275 0.187622 29.5564 1.39028 33.975C2.05271 36.4149 4.00783 38.3366 6.48389 38.9877C10.9794 40.176 29 40.176 29 40.176C29 40.176 47.0206 40.176 51.5161 38.9877C53.9986 38.3366 55.9473 36.4149 56.6097 33.975C57.8123 29.5564 57.8123 20.3275 57.8123 20.3275C57.8123 20.3275 57.8123 11.0986 56.6097 6.68009ZM23.2761 28.7979V11.8571L38.1968 20.2643L23.2761 28.7979Z" fill="#FDFDFD"/>
</svg>
