<svg xmlns="http://www.w3.org/2000/svg" viewBox="0 0 48 48" width="48px" height="48px"><defs><style>.cls-1{fill:#a85da5;}.cls-2{fill:#0b1419;}</style></defs><title>Asset 2</title><g id="Layer_2" data-name="Layer 2"><g id="Layer_1-2" data-name="Layer 1"><path class="cls-1" d="M0,4.73A4.73,4.73,0,0,1,4.73,0h33.1a4.73,4.73,0,0,1,4.73,4.73v33.1a4.72,4.72,0,0,1-4.73,4.73H4.73A4.73,4.73,0,0,1,0,37.83Z"/><path class="cls-2" d="M3.55,3.55V39H39V3.55Zm14.2,12H15.39v5.24h2.33a1.82,1.82,0,0,0,1.5-.64,2.77,2.77,0,0,0,.53-1.84,3.37,3.37,0,0,0-.54-2A1.74,1.74,0,0,0,17.75,15.58Zm4,6.63a5.53,5.53,0,0,1-4.06,1.44H15.39v5.91H11.82V12.75h5.9a5.27,5.27,0,0,1,4,1.54,5.57,5.57,0,0,1,1.48,4A5.18,5.18,0,0,1,21.71,22.21Zm10.45-2L31.1,20.1a1.6,1.6,0,0,0-1.78,1.18v8.28H26V17h3.08l.11,1.3a2.23,2.23,0,0,1,2.13-1.54,2.29,2.29,0,0,1,1,.12Z"/></g></g></svg>