<svg xmlns="http://www.w3.org/2000/svg" viewBox="0 0 43.09 43.09"><defs><style>.cls-1{fill:#060706;}.cls-2{fill:#1a9c49;}</style></defs><title>Asset 8</title><g id="Layer_2" data-name="Layer 2"><g id="Layer_8" data-name="Layer 8"><path class="cls-1" d="M19.28,0h2.48c.06.14.18.08.28.09a24.51,24.51,0,0,1,3.29.44,23.27,23.27,0,0,1,5.84,2.24,27.21,27.21,0,0,1,4.31,3.15c.44.38.42.58,0,1-.95,1-1.92,1.89-2.86,2.86q-1.84,1.89-3.72,3.75-2.54,2.51-5.05,5c-1.24,1.23-2.45,2.48-3.69,3.7-1.66,1.63-3.29,3.28-4.94,4.92-1.27,1.25-2.5,2.53-3.76,3.79L6.92,35.49a.4.4,0,0,1-.66,0,21.26,21.26,0,0,1-3.88-5.2A17.13,17.13,0,0,1,1,26.86,23.71,23.71,0,0,1,.31,24,11.19,11.19,0,0,0,0,21.76V19.6c.19-.08.1-.24.11-.37a21.81,21.81,0,0,1,1-5.18,24.23,24.23,0,0,1,1.12-2.69A19,19,0,0,1,4,8.45,20.43,20.43,0,0,1,7.48,4.73a21.29,21.29,0,0,1,3.59-2.38,16.4,16.4,0,0,1,3.09-1.29A22.58,22.58,0,0,1,17.31.3,7.7,7.7,0,0,0,19.28,0ZM3.75,26.31a2.5,2.5,0,0,0,.07.31,19.23,19.23,0,0,0,2.83,5.21c.22.28.33.14.49,0l4.22-4.22c.62-.62.6-.59,0-1.28A22.46,22.46,0,0,1,8.5,21.91c-.13-.25-.25-.26-.41-.09-.4.37-.78.77-1.16,1.15-.79.8-1.61,1.57-2.37,2.39C4.28,25.67,3.83,25.87,3.75,26.31ZM32.1,6.77a.58.58,0,0,0-.28-.3,18.4,18.4,0,0,0-2.14-1.36,16,16,0,0,0-3.12-1.36.54.54,0,0,0-.6.17c-1.21,1.2-2.42,2.41-3.61,3.63-.2.2-.57.33-.57.61s.45.32.69.46a30.31,30.31,0,0,1,4.38,3c.27.22.37.15.55,0,1.5-1.51,3-3,4.52-4.52C32,7,32.1,6.91,32.1,6.77Zm-6.89,6.92c-.23-.2-.46-.4-.69-.58a21.12,21.12,0,0,0-3.63-2.29c-1.06-.53-1.06-.6-1.86.15-1,.9-1.88,1.85-2.82,2.77a.31.31,0,0,0,0,.52c.36.35.68.72,1,1.07,1,1,2,2,3,3,.24.25.34.12.48,0ZM13.84,25.1l4.49-4.49c.25-.24.24-.36,0-.6-1.27-1.25-2.54-2.53-3.8-3.8-.36-.37-.64-.21-.93.09-.73.76-1.45,1.54-2.21,2.26-1,.93-1,.92-.43,2.13A19.36,19.36,0,0,0,13.84,25.1ZM3,23c.16-.14.27-.22.37-.32.94-.94,1.86-1.91,2.83-2.82s1-.95.6-2.28a20.46,20.46,0,0,1-.86-4.17c-.08-.85,0-1.7-.14-2.69A18.53,18.53,0,0,0,3,23ZM23.09,3.05A17.29,17.29,0,0,0,10.94,5.61l.41,0a26.14,26.14,0,0,1,4.14.49,24.33,24.33,0,0,1,2.93.79.71.71,0,0,0,.93-.25,12.46,12.46,0,0,1,1.21-1.2C21.4,4.66,22.24,3.86,23.09,3.05ZM9.37,16.58c.87-.85,1.69-1.67,2.52-2.46.22-.21.23-.34,0-.56-.47-.45-.91-.94-1.37-1.4-.65-.64-1.3-1.28-2-2A22.64,22.64,0,0,0,9.37,16.58Zm1.07-8.16a1.26,1.26,0,0,0,.18.27c1.06,1.05,2.13,2.1,3.18,3.16.2.2.29.06.43-.07L16.55,9.5c.2-.19.15-.29-.11-.34-.45-.09-.9-.17-1.35-.28A15.65,15.65,0,0,0,10.44,8.42Z"/><path class="cls-2" d="M43.09,22v1.08a15.61,15.61,0,0,0-.31,2.46,19.86,19.86,0,0,1-1.62,5.56A21.35,21.35,0,0,1,38.81,35a19.15,19.15,0,0,1-4.3,4.18,19.49,19.49,0,0,1-4.28,2.33A20.75,20.75,0,0,1,23.16,43c-.15,0-.33-.1-.43.11H22a5.21,5.21,0,0,0-1.71-.2A19.29,19.29,0,0,1,15,41.67a19.48,19.48,0,0,1-5.32-3,14.6,14.6,0,0,1-2.15-1.93c-.14-.17-.27-.32,0-.53.88-.87,1.77-1.74,2.63-2.63,1.12-1.18,2.32-2.29,3.46-3.45L16.77,27c1-1,1.92-1.93,2.9-2.87s2.15-2.21,3.24-3.3c1.47-1.46,3-2.88,4.42-4.36l4.3-4.34c1.5-1.5,3-3,4.51-4.5.43-.43.62-.41,1.06.09a29.51,29.51,0,0,1,2.2,2.78,19.43,19.43,0,0,1,2.37,4.65,19.28,19.28,0,0,1,1.14,5.37A3.63,3.63,0,0,0,43.09,22ZM16.82,39.34c.13,0,.25-.13.39-.27.6-.62,1.21-1.23,1.82-1.83L21.24,35c.13-.13.22-.29,0-.41a22.83,22.83,0,0,1-4.77-3.19c-.34-.3-.48-.23-.73,0-1.44,1.46-2.89,2.93-4.36,4.37-.33.32-.32.47.05.75a18,18,0,0,0,3.38,2A7.33,7.33,0,0,0,16.82,39.34Zm22.55-22.6a3.13,3.13,0,0,0-.11-.46,20.21,20.21,0,0,0-2.71-5.11c-.17-.23-.32-.25-.55,0q-2.25,2.28-4.52,4.53c-.2.2-.24.3,0,.55a22.93,22.93,0,0,1,3.22,4.92c.11.24.27.18.37.05a11,11,0,0,1,1.07-1.09c.81-.81,1.64-1.6,2.41-2.43C38.81,17.36,39.25,17.16,39.37,16.74Zm-10,1.13c-.21.07-.28.27-.42.41L24.78,22.4c-.14.15-.22.24,0,.44.81.79,1.59,1.61,2.38,2.42l1.5,1.5c.29.29.5.36.84,0a28.22,28.22,0,0,1,2.32-2.32c.91-.81,1-1,.63-1.81A20.72,20.72,0,0,0,29.35,17.87ZM27.21,28.93l-.2-.21c-1.14-1.14-2.27-2.29-3.42-3.43-.27-.27-.59-.79-.82-.75s-.62.49-.91.79c-1.21,1.21-2.41,2.43-3.62,3.65-.1.11-.34.2-.07.4.48.36.93.76,1.42,1.1a20.89,20.89,0,0,0,3,1.76c.82.41.83.48,1.45-.12,1-1,2-2,3-3C27.15,29.07,27.24,29.07,27.21,28.93ZM20,40c2.89.92,10.85-.91,12.18-2.75a19,19,0,0,1-3.38-.18A29,29,0,0,1,24.47,36a.49.49,0,0,0-.57.13Zm20.19-20a.55.55,0,0,0-.16.1c-1.11,1.1-2.2,2.23-3.35,3.29a1.3,1.3,0,0,0-.42,1.6,19,19,0,0,1,1.06,5.33c0,.56.09,1.12.16,1.82A18.3,18.3,0,0,0,40.16,20.06ZM32.85,34.61a1.6,1.6,0,0,0-.19-.25l-3.25-3.24c-.18-.18-.32-.13-.5,0-.73.76-1.47,1.51-2.23,2.23-.3.28-.14.29.12.36A25.82,25.82,0,0,0,32.85,34.61Zm1.82-1.93a21,21,0,0,0-.84-6.27c-.88.85-1.7,1.66-2.54,2.45-.25.23-.18.35,0,.55.64.61,1.24,1.27,1.88,1.88A12.29,12.29,0,0,0,34.67,32.68Z"/></g></g></svg>