<svg xmlns="http://www.w3.org/2000/svg" viewBox="0 0 48 48" width="48px" height="48px"><defs><style>.cls-1{fill:#eae38c;}.cls-2{fill:#6ca843;}.cls-3{fill:#231f20;}</style></defs><title>Asset 1</title><g id="Layer_2" data-name="Layer 2"><g id="Layer_1-2" data-name="Layer 1"><g id="Layer_8" data-name="Layer 8"><rect class="cls-1" width="48.02" height="48.02" rx="24.01"/><path class="cls-2" d="M3.06,29a.81.81,0,0,1-.93-.68.88.88,0,0,1,0-.32V23.79a.79.79,0,0,1,.67-.91H3a.79.79,0,0,1,.89.69.88.88,0,0,1,0,.23h0a1.82,1.82,0,0,1,.72-.71,2.12,2.12,0,0,1,1.07-.26,1.91,1.91,0,0,1,1.07.28,1.66,1.66,0,0,1,.66.84,2,2,0,0,1,.8-.83,2.46,2.46,0,0,1,1.16-.29,1.76,1.76,0,0,1,1.49.61,2.91,2.91,0,0,1,.5,1.86V28a.93.93,0,0,1-.24.69.86.86,0,0,1-.66.24.81.81,0,0,1-.88-.75.54.54,0,0,1,0-.18V25.38a1.59,1.59,0,0,0-.18-.86.7.7,0,0,0-.63-.27,1,1,0,0,0-.8.36,1.55,1.55,0,0,0-.29,1V28a.81.81,0,0,1-.67.93.89.89,0,0,1-.23,0,.87.87,0,0,1-.67-.24A.93.93,0,0,1,5.87,28V25.38a1.6,1.6,0,0,0-.19-.86.73.73,0,0,0-.63-.27,1,1,0,0,0-.8.36,1.61,1.61,0,0,0-.29,1V28a.8.8,0,0,1-.59,1A.81.81,0,0,1,3.06,29Z"/><path class="cls-2" d="M15.62,29A3.52,3.52,0,0,1,14,28.61a2.65,2.65,0,0,1-1.09-1.06,3.47,3.47,0,0,1-.38-1.64,3.4,3.4,0,0,1,.38-1.63A2.65,2.65,0,0,1,14,23.22a3.38,3.38,0,0,1,1.65-.37,3.34,3.34,0,0,1,1.64.37,2.74,2.74,0,0,1,1.1,1.06,3.3,3.3,0,0,1,.39,1.63,3.34,3.34,0,0,1-.39,1.64,2.74,2.74,0,0,1-1.1,1.06A3.45,3.45,0,0,1,15.62,29Zm0-1.36a1.21,1.21,0,0,0,.94-.41,2,2,0,0,0,.36-1.31,1.91,1.91,0,0,0-.36-1.29,1.21,1.21,0,0,0-.94-.41,1.16,1.16,0,0,0-.94.41,1.91,1.91,0,0,0-.36,1.29,2,2,0,0,0,.36,1.31,1.17,1.17,0,0,0,.94.4Z"/><path class="cls-2" d="M22.71,29A3.52,3.52,0,0,1,21,28.61a2.7,2.7,0,0,1-1.1-1.07,3.47,3.47,0,0,1-.38-1.64,3.29,3.29,0,0,1,.38-1.63A2.59,2.59,0,0,1,21,23.22a3.46,3.46,0,0,1,1.67-.37,3.57,3.57,0,0,1,.8.09,2.62,2.62,0,0,1,.82.31.61.61,0,0,1,.37.4.75.75,0,0,1,0,.51.6.6,0,0,1-.32.36.53.53,0,0,1-.52,0,1.94,1.94,0,0,0-.94-.25,1.4,1.4,0,0,0-1.09.44,2.17,2.17,0,0,0,0,2.48,1.37,1.37,0,0,0,1.09.45,2.4,2.4,0,0,0,.46-.05,2,2,0,0,0,.48-.19.53.53,0,0,1,.52,0,.63.63,0,0,1,.31.37.89.89,0,0,1,0,.51.7.7,0,0,1-.36.41,3.48,3.48,0,0,1-.82.29A3.86,3.86,0,0,1,22.71,29Z"/><path class="cls-2" d="M26.49,29a.81.81,0,0,1-.91-.69,1,1,0,0,1,0-.24V21.22A.91.91,0,0,1,27.39,21a.61.61,0,0,1,0,.19V25.4h0l1.74-1.93a2.56,2.56,0,0,1,.48-.45,1.05,1.05,0,0,1,.6-.15.86.86,0,0,1,.58.19.63.63,0,0,1,.2.47.79.79,0,0,1-.24.54l-1.53,1.72,1.74,2a.77.77,0,0,1,.19.56.65.65,0,0,1-.24.44.85.85,0,0,1-.55.18,1.27,1.27,0,0,1-.66-.16,2.53,2.53,0,0,1-.5-.48l-1.81-2h0V28a.8.8,0,0,1-.59,1A.81.81,0,0,1,26.49,29Z"/><path class="cls-3" d="M33.18,21.89a1.17,1.17,0,0,1-.77-.23.85.85,0,0,1-.27-.67.87.87,0,0,1,.27-.68,1.17,1.17,0,0,1,.77-.23c.69,0,1,.3,1,.91S33.87,21.89,33.18,21.89Zm0,7.06a.87.87,0,0,1-.68-.25,1.14,1.14,0,0,1-.23-.73v-4.1c0-.66.3-1,.91-1a.89.89,0,0,1,.67.26,1.09,1.09,0,0,1,.23.74V28a1,1,0,0,1-.23.73.82.82,0,0,1-.67.27Z"/><path class="cls-3" d="M38.37,29a2.16,2.16,0,0,1-2.47-1.8,2.08,2.08,0,0,1,0-.61V24.33h-.5a.68.68,0,1,1,0-1.36h.5v-.91a.91.91,0,1,1,1.81-.19.61.61,0,0,1,0,.19V23h1.14a.68.68,0,1,1,0,1.36H37.7v2.18a1,1,0,0,0,.24.75,1,1,0,0,0,.75.26H39l.29-.05a.32.32,0,0,1,.27.11.76.76,0,0,1,.11.49,1.48,1.48,0,0,1-.09.51.65.65,0,0,1-.34.31,2.13,2.13,0,0,1-.42.1A2.47,2.47,0,0,1,38.37,29Z"/><path class="cls-3" d="M43.1,29a3.51,3.51,0,0,1-1.65-.38,2.65,2.65,0,0,1-1.09-1.06,3.82,3.82,0,0,1,0-3.28,2.65,2.65,0,0,1,1.09-1.06,3.89,3.89,0,0,1,3.3,0,2.65,2.65,0,0,1,1.09,1.06,3.3,3.3,0,0,1,.39,1.63,3.34,3.34,0,0,1-.39,1.64,2.85,2.85,0,0,1-1.09,1.06A3.48,3.48,0,0,1,43.1,29Zm0-1.36a1.19,1.19,0,0,0,.94-.41,2,2,0,0,0,.36-1.31,1.9,1.9,0,0,0-.4-1.3,1.19,1.19,0,0,0-.94-.41,1.16,1.16,0,0,0-.94.41,1.91,1.91,0,0,0-.36,1.29,2,2,0,0,0,.36,1.31,1.15,1.15,0,0,0,1,.41Z"/></g></g></g></svg>