<svg xmlns="http://www.w3.org/2000/svg" xmlns:xlink="http://www.w3.org/1999/xlink" viewBox="0 0 50 50"><defs><style>.cls-1,.cls-4{fill:#fff;}.cls-2{mask:url(#mask);}.cls-3{fill:#010101;}.cls-4{fill-rule:evenodd;}.cls-5{fill:#5d5d5f;}</style><mask id="mask" x="0" y="0" width="50" height="50" maskUnits="userSpaceOnUse"><g id="mask-2"><path id="path-1" class="cls-1" d="M25,0A25,25,0,1,1,0,25,25,25,0,0,1,25,0Z"/></g></mask></defs><title>Asset 5</title><g id="Layer_2" data-name="Layer 2"><g id="Layer_3" data-name="Layer 3"><g id="mask-2-5" data-name="mask-2"><path id="path-1-4" data-name="path-1" class="cls-1" d="M25,0A25,25,0,1,1,0,25,25,25,0,0,1,25,0Z"/></g><g class="cls-2"><path id="path-3" class="cls-3" d="M25,.59A24.41,24.41,0,1,1,.59,25,24.4,24.4,0,0,1,25,.59Z"/><path class="cls-4" d="M25,.59A24.41,24.41,0,1,1,.59,25,24.4,24.4,0,0,1,25,.59Z"/></g><g class="cls-2"><path class="cls-5" d="M25,1.44A23.56,23.56,0,1,1,1.44,25,23.55,23.55,0,0,1,25,1.44Z"/></g><g class="cls-2"><path class="cls-1" d="M37.51,35.37a12.42,12.42,0,0,1-3.94,6.08,13,13,0,0,1-7.2,2.48L25.77,40a9.68,9.68,0,0,0,4.37-1.37,11.92,11.92,0,0,0,1-1L24.06,14.81H30l4.11,17,4.37-17h5.74ZM16.86,14a10,10,0,0,1,3.69.59,11.13,11.13,0,0,1,3.17,1.89l-2.4,3.25a9.81,9.81,0,0,0-2-1.11,5.41,5.41,0,0,0-2.06-.34c-2.91,0-4.37,2.23-4.37,6.77,0,2.31.34,3.94,1.12,4.88a3.68,3.68,0,0,0,3.25,1.45,5,5,0,0,0,2-.34A16.58,16.58,0,0,0,21.4,30l2.4,3.43A10.27,10.27,0,0,1,17,35.79a10.57,10.57,0,0,1-5.31-1.28A8.65,8.65,0,0,1,8.3,30.74,13.06,13.06,0,0,1,7.1,25a13.35,13.35,0,0,1,1.2-5.74,9.1,9.1,0,0,1,3.42-3.94A10.89,10.89,0,0,1,16.86,14Z"/></g></g></g></svg>