<svg xmlns="http://www.w3.org/2000/svg" viewBox="0 0 48 48" width="48px" height="48px"><defs><style>.cls-1{fill:#a4bcd8;}.cls-2{fill:#231f20;}.cls-3{fill:#fdd600;}</style></defs><title>Asset 2</title><g id="Layer_2" data-name="Layer 2"><g id="Layer_1-2" data-name="Layer 1"><g id="Layer_8" data-name="Layer 8"><rect class="cls-1" width="48.02" height="48.02" rx="15"/><path class="cls-2" d="M6,29.86a.91.91,0,0,1-.82-.32,1.32,1.32,0,0,1-.3-.89,1.22,1.22,0,0,1,.21-.72.78.78,0,0,1,.62-.35h.45C7,27.49,7.38,27,7.38,26V18.2a1.56,1.56,0,0,1,.31-1.06,1.1,1.1,0,0,1,.89-.37c.81,0,1.21.47,1.21,1.43V26q0,3.6-3.26,3.84Z"/><path class="cls-3" d="M16.68,29.92a4.48,4.48,0,0,1-3.55-1.39,6.12,6.12,0,0,1-1.22-4.15V18.23a1.56,1.56,0,0,1,.31-1.06,1.06,1.06,0,0,1,.9-.37c.8,0,1.2.47,1.2,1.43V24.4a3.79,3.79,0,0,0,.6,2.34,2.07,2.07,0,0,0,1.76.79c1.56,0,2.35-1,2.35-3.13V18.23c0-1,.4-1.43,1.19-1.43a1.05,1.05,0,0,1,.88.37,1.67,1.67,0,0,1,.3,1.06v6.15a6.23,6.23,0,0,1-1.19,4.15A4.42,4.42,0,0,1,16.68,29.92Z"/><path class="cls-2" d="M24.51,29.88c-.78,0-1.18-.46-1.18-1.39V22.06c0-.91.39-1.37,1.15-1.37s1.15.46,1.15,1.37v.08a2.71,2.71,0,0,1,2.51-1.52,2.35,2.35,0,0,1,2,.92,4.79,4.79,0,0,1,.67,2.81v4.11c0,.93-.4,1.39-1.19,1.39a1,1,0,0,1-.86-.36,1.56,1.56,0,0,1-.3-1v-4a2.29,2.29,0,0,0-.3-1.33,1,1,0,0,0-.87-.41,1.5,1.5,0,0,0-1.19.54,2.28,2.28,0,0,0-.44,1.45v3.73C25.68,29.42,25.29,29.88,24.51,29.88Z"/><path class="cls-2" d="M33.76,19.2a1.31,1.31,0,0,1-1-.35,1.35,1.35,0,0,1-.35-1,1.41,1.41,0,0,1,.35-1,1.35,1.35,0,0,1,1-.35,1.2,1.2,0,0,1,1.35,1,1.36,1.36,0,0,1,0,.35,1.19,1.19,0,0,1-1,1.32A1.5,1.5,0,0,1,33.76,19.2Zm0,10.66a1,1,0,0,1-.87-.38,1.67,1.67,0,0,1-.31-1.1V22.19c0-1,.4-1.5,1.18-1.5a1,1,0,0,1,.87.39,1.83,1.83,0,0,1,.3,1.11v6.19a1.86,1.86,0,0,1-.29,1.1A1.06,1.06,0,0,1,33.76,29.86Z"/><path class="cls-2" d="M40.5,29.92q-3.22,0-3.22-3.64v-3.4h-.65c-.62,0-.92-.34-.92-1s.3-1,.92-1h.65V19.46c0-.93.39-1.4,1.18-1.4s1.17.47,1.17,1.4v1.37H41.1c.6,0,.9.35.9,1s-.3,1-.9,1H39.63v3.29a1.85,1.85,0,0,0,.3,1.14,1.14,1.14,0,0,0,1,.38,2.12,2.12,0,0,0,.44-.05,1.51,1.51,0,0,1,.37-.07.39.39,0,0,1,.36.16,1.36,1.36,0,0,1,.14.74,2,2,0,0,1-.13.77.81.81,0,0,1-.43.46,3.47,3.47,0,0,1-.55.16A4.62,4.62,0,0,1,40.5,29.92Z"/></g></g></g></svg>