<svg xmlns="http://www.w3.org/2000/svg" viewBox="0 0 48.02 48.02"><defs><style>.cls-1{fill:#fff;}.cls-2{fill:#231f20;}.cls-3{fill:#dc3a42;}.cls-4{fill:#fdd600;}</style></defs><title>Asset 7</title><g id="Layer_2" data-name="Layer 2"><g id="Layer_8" data-name="Layer 8"><rect class="cls-1" width="48.02" height="48.02"/><path class="cls-2" d="M6.07,29.19a.94.94,0,0,1-.71-.26,1,1,0,0,1-.25-.72V22H3a.79.79,0,1,1,0-1.57H9.17a.79.79,0,1,1,0,1.57H7v6.18a1,1,0,0,1-.24.72A.91.91,0,0,1,6.07,29.19Z"/><path class="cls-2" d="M12.78,29.21A4,4,0,0,1,11,28.83a2.75,2.75,0,0,1-1.17-1.09,3.17,3.17,0,0,1-.41-1.66,3.33,3.33,0,0,1,.39-1.63,3,3,0,0,1,1.09-1.1,3.19,3.19,0,0,1,1.6-.39,2.72,2.72,0,0,1,2.08.82A3.15,3.15,0,0,1,15.3,26c0,.31-.2.47-.58.47H11.13a1.49,1.49,0,0,0,.52,1,1.9,1.9,0,0,0,1.16.32,4.25,4.25,0,0,0,.67-.06,3,3,0,0,0,.72-.24.68.68,0,0,1,.59-.07.59.59,0,0,1,.34.35.74.74,0,0,1,0,.51.81.81,0,0,1-.41.43,3.81,3.81,0,0,1-1,.35A4.29,4.29,0,0,1,12.78,29.21Zm-.26-5a1.32,1.32,0,0,0-.95.35,1.63,1.63,0,0,0-.44,1h2.64C13.72,24.63,13.3,24.18,12.52,24.18Z"/><path class="cls-2" d="M18.67,29.21a7.11,7.11,0,0,1-1.11-.09,4,4,0,0,1-1-.33.79.79,0,0,1-.4-.41.64.64,0,0,1,0-.47.61.61,0,0,1,.3-.35.59.59,0,0,1,.52,0,5.15,5.15,0,0,0,.92.3,4.63,4.63,0,0,0,.81.08,1.39,1.39,0,0,0,.76-.16.51.51,0,0,0,.24-.44c0-.28-.2-.46-.62-.53l-1.28-.24A2.07,2.07,0,0,1,16.6,26a1.47,1.47,0,0,1-.4-1.08,1.68,1.68,0,0,1,.34-1.06,2.22,2.22,0,0,1,.94-.68A3.71,3.71,0,0,1,18.87,23a4.15,4.15,0,0,1,1.9.41.59.59,0,0,1,.35.38.72.72,0,0,1-.35.83.6.6,0,0,1-.52,0,4.24,4.24,0,0,0-.74-.27,2.78,2.78,0,0,0-.62-.08,1.33,1.33,0,0,0-.79.18.53.53,0,0,0-.25.45c0,.28.19.46.58.54l1.28.23a2.3,2.3,0,0,1,1.21.53,1.41,1.41,0,0,1,.41,1.08,1.7,1.7,0,0,1-.73,1.47A3.24,3.24,0,0,1,18.67,29.21Z"/><path class="cls-2" d="M25.27,29.21c-1.69,0-2.53-.81-2.53-2.45v-2.3h-.51q-.72,0-.72-.69t.72-.69h.51v-.93a.93.93,0,1,1,1.85,0v.93h1.16a.69.69,0,1,1,0,1.38H24.59v2.22a1.12,1.12,0,0,0,.23.77,1,1,0,0,0,.77.26,1.27,1.27,0,0,0,.34,0l.29-.05a.32.32,0,0,1,.28.12.73.73,0,0,1,.11.5,1.38,1.38,0,0,1-.09.52.63.63,0,0,1-.35.31,2.3,2.3,0,0,1-.43.1A2.88,2.88,0,0,1,25.27,29.21Z"/><path class="cls-3" d="M28.3,29.19c-.59,0-.88-.31-.88-.92v-7a1,1,0,0,1,.23-.71.76.76,0,0,1,.6-.25.82.82,0,0,1,.5.13,2.35,2.35,0,0,1,.42.42l4,5.05V21.26c0-.61.29-.91.88-.91s.88.3.88.91v7a.93.93,0,0,1-.21.64.7.7,0,0,1-.56.24,1,1,0,0,1-.54-.13,2.18,2.18,0,0,1-.44-.43l-4-5.05v4.69C29.18,28.88,28.89,29.19,28.3,29.19Z"/><path class="cls-4" d="M40.89,29.21a5,5,0,0,1-2.46-.55,3.69,3.69,0,0,1-1.54-1.54,4.87,4.87,0,0,1-.52-2.32,4.94,4.94,0,0,1,.54-2.37,3.78,3.78,0,0,1,1.57-1.55A5.15,5.15,0,0,1,41,20.33a6.58,6.58,0,0,1,1.32.14,4.91,4.91,0,0,1,1.27.49.76.76,0,0,1,.4.49.86.86,0,0,1-.07.59.8.8,0,0,1-.41.42.73.73,0,0,1-.65-.05A3.88,3.88,0,0,0,41,22a2.52,2.52,0,0,0-2,.72,3.09,3.09,0,0,0-.65,2.1A2.92,2.92,0,0,0,39,26.89a2.58,2.58,0,0,0,2,.71,5.3,5.3,0,0,0,1.47-.22V25.69h-1.1c-.51,0-.76-.22-.76-.68s.25-.69.76-.69h1.92a.67.67,0,0,1,.74.76v2.84a1,1,0,0,1-.13.54.7.7,0,0,1-.41.31,7.58,7.58,0,0,1-1.23.32A7.9,7.9,0,0,1,40.89,29.21Z"/></g></g></svg>