<svg xmlns="http://www.w3.org/2000/svg" viewBox="0 0 48 48" width="48px" height="48px"><defs><style>.cls-1{fill:#231f20;}.cls-2{fill:#fdd600;}</style></defs><title>Asset 3</title><g id="Layer_2" data-name="Layer 2"><g id="Layer_1-2" data-name="Layer 1"><path class="cls-1" d="M1.19,12.27A1.13,1.13,0,0,1,.32,12,1.1,1.1,0,0,1,0,11.16a1,1,0,0,1,.22-.66.91.91,0,0,1,.66-.32l.48,0A1.25,1.25,0,0,0,2.69,8.76V1.61A1.34,1.34,0,0,1,3,.64,1.23,1.23,0,0,1,4,.3a1.15,1.15,0,0,1,1.3,1.31V8.72c0,2.2-1.16,3.38-3.49,3.52Z"/><path class="cls-2" d="M12.61,12.32a5.18,5.18,0,0,1-3.79-1.27,5.11,5.11,0,0,1-1.31-3.8V1.61a1.3,1.3,0,0,1,.34-1,1.26,1.26,0,0,1,1-.34,1.14,1.14,0,0,1,1.27,1.31V7.26a3.12,3.12,0,0,0,.65,2.15,2.4,2.4,0,0,0,1.88.72c1.66,0,2.5-1,2.5-2.87V1.61A1.15,1.15,0,0,1,16.39.3a1.19,1.19,0,0,1,.93.34,1.34,1.34,0,0,1,.33,1V7.25a5.18,5.18,0,0,1-1.28,3.8A5.11,5.11,0,0,1,12.61,12.32Z"/><path class="cls-1" d="M21,12.29A1.12,1.12,0,0,1,19.7,11V5.13a1.1,1.1,0,0,1,1.23-1.27,1.1,1.1,0,0,1,1.23,1.27v.06a2.77,2.77,0,0,1,1.11-1,3.44,3.44,0,0,1,1.56-.35A2.69,2.69,0,0,1,27,4.67a4,4,0,0,1,.71,2.58V11a1.12,1.12,0,0,1-1.26,1.28,1.22,1.22,0,0,1-.92-.33,1.29,1.29,0,0,1-.33-1V7.36a1.85,1.85,0,0,0-.31-1.21A1.15,1.15,0,0,0,24,5.77a1.69,1.69,0,0,0-1.27.5,1.86,1.86,0,0,0-.47,1.33V11A1.12,1.12,0,0,1,21,12.29Z"/><path class="cls-1" d="M30.83,2.5a1.57,1.57,0,0,1-1.07-.32,1.14,1.14,0,0,1-.37-.92,1.18,1.18,0,0,1,.37-.94A1.63,1.63,0,0,1,30.83,0c1,0,1.43.42,1.43,1.26S31.78,2.5,30.83,2.5Zm0,9.77a1.2,1.2,0,0,1-.93-.35,1.45,1.45,0,0,1-.33-1V5.24q0-1.38,1.26-1.38a1.16,1.16,0,0,1,.92.36,1.46,1.46,0,0,1,.33,1v5.67a1.49,1.49,0,0,1-.32,1A1.2,1.2,0,0,1,30.83,12.27Z"/><path class="cls-1" d="M38,12.32c-2.28,0-3.43-1.11-3.43-3.33V5.87h-.7c-.65,0-1-.31-1-.93s.32-.94,1-.94h.7V2.74a1.26,1.26,0,1,1,2.51,0V4h1.57a.84.84,0,0,1,1,.94.84.84,0,0,1-1,.93H37.09v3a1.46,1.46,0,0,0,.32,1,1.32,1.32,0,0,0,1,.35,1.71,1.71,0,0,0,.46,0l.4-.06a.45.45,0,0,1,.38.15,1.06,1.06,0,0,1,.15.68,1.82,1.82,0,0,1-.13.7.82.82,0,0,1-.47.42,2.62,2.62,0,0,1-.59.15A5.58,5.58,0,0,1,38,12.32Z"/></g></g></svg>