<svg xmlns="http://www.w3.org/2000/svg" viewBox="0 0 48.02 48.02"><defs><style>.cls-1{fill:#fff;}.cls-2{fill:#6ca843;}.cls-3{fill:#231f20;}</style></defs><title>Asset 4</title><g id="Layer_2" data-name="Layer 2"><g id="Layer_8" data-name="Layer 8"><rect class="cls-1" width="48.02" height="48.02"/><path class="cls-2" d="M3.06,29A.81.81,0,0,1,2.15,28V23.79A.8.8,0,0,1,3,22.87a.8.8,0,0,1,.89.92v0a1.82,1.82,0,0,1,.72-.71,2.2,2.2,0,0,1,1.07-.26,1.94,1.94,0,0,1,1.07.28,1.67,1.67,0,0,1,.66.84,1.94,1.94,0,0,1,.8-.83,2.38,2.38,0,0,1,1.16-.29,1.77,1.77,0,0,1,1.49.61,2.89,2.89,0,0,1,.5,1.86V28a.93.93,0,0,1-.24.69.88.88,0,0,1-.66.24A.82.82,0,0,1,9.58,28V25.38a1.6,1.6,0,0,0-.18-.86.7.7,0,0,0-.63-.27,1,1,0,0,0-.8.36,1.55,1.55,0,0,0-.29,1V28a.81.81,0,0,1-.9.93.9.9,0,0,1-.67-.24A.93.93,0,0,1,5.87,28V25.38a1.59,1.59,0,0,0-.19-.86.72.72,0,0,0-.63-.27,1,1,0,0,0-.8.36,1.61,1.61,0,0,0-.29,1V28A.81.81,0,0,1,3.06,29Z"/><path class="cls-2" d="M15.62,29A3.44,3.44,0,0,1,14,28.61a2.71,2.71,0,0,1-1.09-1.06,3.4,3.4,0,0,1-.38-1.64,3.36,3.36,0,0,1,.38-1.63A2.65,2.65,0,0,1,14,23.22a3.43,3.43,0,0,1,1.65-.37,3.39,3.39,0,0,1,1.64.37,2.68,2.68,0,0,1,1.1,1.06,3.25,3.25,0,0,1,.39,1.63,3.29,3.29,0,0,1-.39,1.64,2.74,2.74,0,0,1-1.1,1.06A3.4,3.4,0,0,1,15.62,29Zm0-1.36a1.19,1.19,0,0,0,.94-.41,2,2,0,0,0,.36-1.31,1.93,1.93,0,0,0-.36-1.29,1.19,1.19,0,0,0-.94-.41,1.17,1.17,0,0,0-.94.41,1.93,1.93,0,0,0-.36,1.29,2,2,0,0,0,.36,1.31A1.17,1.17,0,0,0,15.62,27.63Z"/><path class="cls-2" d="M22.71,29A3.55,3.55,0,0,1,21,28.61a2.7,2.7,0,0,1-1.1-1.07,3.4,3.4,0,0,1-.38-1.64,3.3,3.3,0,0,1,.38-1.63A2.59,2.59,0,0,1,21,23.22a3.54,3.54,0,0,1,1.67-.37,3.85,3.85,0,0,1,.8.09,2.72,2.72,0,0,1,.82.31.61.61,0,0,1,.37.4.75.75,0,0,1,0,.51.6.6,0,0,1-.32.36.52.52,0,0,1-.52,0,2,2,0,0,0-.94-.25,1.39,1.39,0,0,0-1.09.44,1.79,1.79,0,0,0-.39,1.24,1.82,1.82,0,0,0,.39,1.24,1.36,1.36,0,0,0,1.09.45,2.49,2.49,0,0,0,.46-.05,1.92,1.92,0,0,0,.48-.19.55.55,0,0,1,.52,0,.67.67,0,0,1,.31.37.88.88,0,0,1,0,.51.68.68,0,0,1-.36.41,3.65,3.65,0,0,1-.82.29A3.59,3.59,0,0,1,22.71,29Z"/><path class="cls-2" d="M26.49,29a.81.81,0,0,1-.91-.93V21.22a.91.91,0,1,1,1.81,0V25.4h0l1.74-1.93a3.13,3.13,0,0,1,.48-.45,1.07,1.07,0,0,1,.6-.15.86.86,0,0,1,.58.19.62.62,0,0,1,.2.47.78.78,0,0,1-.24.54l-1.53,1.72,1.74,2a.76.76,0,0,1,.19.56.63.63,0,0,1-.24.44.85.85,0,0,1-.55.18,1.24,1.24,0,0,1-.66-.16,2.42,2.42,0,0,1-.5-.48l-1.81-2h0V28A.81.81,0,0,1,26.49,29Z"/><path class="cls-3" d="M33.18,21.89a1.18,1.18,0,0,1-.77-.23.85.85,0,0,1-.27-.67.87.87,0,0,1,.27-.68,1.18,1.18,0,0,1,.77-.23c.69,0,1,.3,1,.91S33.87,21.89,33.18,21.89Zm0,7.06a.89.89,0,0,1-.68-.25,1.1,1.1,0,0,1-.23-.73v-4.1c0-.66.3-1,.91-1a.87.87,0,0,1,.67.26,1.09,1.09,0,0,1,.23.74V28a1,1,0,0,1-.23.73A.84.84,0,0,1,33.18,29Z"/><path class="cls-3" d="M38.37,29a2.16,2.16,0,0,1-2.48-2.41V24.33h-.5a.68.68,0,1,1,0-1.36h.5v-.91a.91.91,0,1,1,1.81,0V23h1.14a.68.68,0,1,1,0,1.36H37.7v2.18a1,1,0,0,0,.24.75,1,1,0,0,0,.75.26,1.66,1.66,0,0,0,.33,0l.29-.05a.31.31,0,0,1,.27.11.72.72,0,0,1,.11.49,1.29,1.29,0,0,1-.09.51.65.65,0,0,1-.34.31,2.37,2.37,0,0,1-.42.1A2.88,2.88,0,0,1,38.37,29Z"/><path class="cls-3" d="M43.1,29a3.46,3.46,0,0,1-1.65-.38,2.71,2.71,0,0,1-1.09-1.06A3.4,3.4,0,0,1,40,25.91a3.36,3.36,0,0,1,.38-1.63,2.65,2.65,0,0,1,1.09-1.06,3.86,3.86,0,0,1,3.3,0,2.71,2.71,0,0,1,1.09,1.06,3.25,3.25,0,0,1,.39,1.63,3.29,3.29,0,0,1-.39,1.64,2.78,2.78,0,0,1-1.09,1.06A3.46,3.46,0,0,1,43.1,29Zm0-1.36a1.18,1.18,0,0,0,.94-.41,2,2,0,0,0,.36-1.31A1.93,1.93,0,0,0,44,24.62a1.18,1.18,0,0,0-.94-.41,1.17,1.17,0,0,0-.94.41,1.93,1.93,0,0,0-.36,1.29,2,2,0,0,0,.36,1.31A1.17,1.17,0,0,0,43.1,27.63Z"/></g></g></svg>