<svg xmlns="http://www.w3.org/2000/svg" viewBox="0 0 48 48" width="48px" height="48px"><defs><style>.cls-1{fill:#b8b5db;}.cls-2{fill:#a5a2d0;}.cls-3{fill:#8786c1;}.cls-4{fill:#8d6d9f;}.cls-5{fill:none;stroke:#f9efdf;stroke-linecap:round;stroke-linejoin:round;stroke-width:2px;}</style></defs><title>Asset 1</title><g id="Layer_2" data-name="Layer 2"><g id="Layer_1-2" data-name="Layer 1"><path class="cls-1" d="M42.69,44.43H2.61A1.74,1.74,0,0,1,.87,42.69V2.61A1.74,1.74,0,0,1,2.61.87H42.69a1.74,1.74,0,0,1,1.74,1.74V42.69A1.74,1.74,0,0,1,42.69,44.43Z"/><path class="cls-2" d="M42.69,44.43H2.61A1.74,1.74,0,0,1,.87,42.69V26.14a3.49,3.49,0,0,1,3.49-3.49H41a3.48,3.48,0,0,1,3.48,3.49V42.69A1.74,1.74,0,0,1,42.69,44.43Z"/><path class="cls-3" d="M38.33,39.1H7a.87.87,0,0,1-.87-.88V6.86A.87.87,0,0,1,7,6H38.33a.87.87,0,0,1,.87.87V38.22A.87.87,0,0,1,38.33,39.1Z"/><path class="cls-4" d="M38.33,5.23H7A1.74,1.74,0,0,0,5.23,7V38.33A1.74,1.74,0,0,0,7,40.08H9.58a.88.88,0,0,0,0-1.75H7V7H38.33V38.33H35.72a.88.88,0,0,0,0,1.75h2.61a1.75,1.75,0,0,0,1.75-1.75V7A1.74,1.74,0,0,0,38.33,5.23Z"/><path class="cls-4" d="M42.69,0H2.61A2.61,2.61,0,0,0,0,2.61V42.69A2.61,2.61,0,0,0,2.61,45.3H42.69a2.61,2.61,0,0,0,2.61-2.61h0V2.61A2.61,2.61,0,0,0,42.69,0Zm.87,42.69a.87.87,0,0,1-.87.87H2.61a.87.87,0,0,1-.87-.87V2.61a.87.87,0,0,1,.87-.87H42.69a.87.87,0,0,1,.87.87Z"/><path class="cls-4" d="M18.3,36.59a.87.87,0,0,0-.88.87V39.2a.88.88,0,1,0,1.75,0V37.46A.87.87,0,0,0,18.3,36.59Zm4.35,0a.87.87,0,0,0-.87.87V39.2a.87.87,0,1,0,1.74,0V37.46A.87.87,0,0,0,22.65,36.59Zm4.36,0a.87.87,0,0,0-.87.87V39.2a.87.87,0,1,0,1.74,0V37.46A.87.87,0,0,0,27,36.59Zm4.35,0a.87.87,0,0,0-.87.87V39.2a.88.88,0,1,0,1.75,0V37.46A.88.88,0,0,0,31.36,36.59Zm-17.42,0a.87.87,0,0,0-.87.87V39.2a.87.87,0,1,0,1.74,0V37.46A.87.87,0,0,0,13.94,36.59Z"/><line class="cls-5" x1="24.39" y1="16.55" x2="24.39" y2="30.49"/><path class="cls-5" d="M24.39,29.62V24A3.92,3.92,0,0,1,28.31,20h0A3.92,3.92,0,0,1,32.24,24v6.53"/><path class="cls-5" d="M20,27a3.48,3.48,0,0,1-3.49,3.48h0A3.48,3.48,0,0,1,13.07,27V18.3a3.48,3.48,0,0,1,3.48-3.49h0A3.49,3.49,0,0,1,20,18.3"/></g></g></svg>