<svg xmlns="http://www.w3.org/2000/svg" viewBox="0 0 48 48" width="48px" height="48px"><defs><style>.cls-1{fill:#d33833;}.cls-1,.cls-10,.cls-11,.cls-14,.cls-15,.cls-16,.cls-17,.cls-4,.cls-5,.cls-6,.cls-7,.cls-8{fill-rule:evenodd;}.cls-14,.cls-2{fill:#ef3d3a;}.cls-15,.cls-3{fill:#231f20;}.cls-4{fill:#f0d6b7;}.cls-5{fill:#335061;}.cls-6{fill:#6d6b6d;}.cls-7{fill:#dcd9d8;}.cls-8,.cls-9{fill:#f7e4cd;}.cls-10{fill:#49728b;}.cls-11,.cls-12{fill:#fff;}.cls-13{fill:none;stroke:#d33833;stroke-width:0.29px;}.cls-16{fill:#81b0c4;}.cls-17{fill:#1d1919;}</style></defs><title>Asset 1</title><g id="Layer_2" data-name="Layer 2"><g id="Layer_1-2" data-name="Layer 1"><path class="cls-1" d="M32.51,22a16.19,16.19,0,0,1-16,16.37A16.19,16.19,0,0,1,.5,22a16.19,16.19,0,0,1,16-16.37A16.19,16.19,0,0,1,32.51,22"/><path class="cls-2" d="M1.15,26S0,9,15.72,8.48l-1.1-1.83L6.09,9.52l-2.44,2.8L1.52,16.41.3,21.16l.36,3.17"/><path class="cls-3" d="M5.54,10.82a16.16,16.16,0,0,0,0,22.46,15.28,15.28,0,0,0,21.93,0,16.16,16.16,0,0,0,0-22.46,15.25,15.25,0,0,0-21.93,0ZM4.83,34a17.14,17.14,0,0,1,0-23.85,16.25,16.25,0,0,1,23.34,0,17.14,17.14,0,0,1,0,23.85A16.21,16.21,0,0,1,4.83,34"/><path class="cls-4" d="M23.24,22.08l-2.44.36-3.29.37-2.13.06-2.08-.06-1.58-.5-1.4-1.53-1.1-3.1L9,17l-1.47-.5-.85-1.4-.61-2,.67-1.77,1.59-.55,1.28.61.61,1.34.73-.12.24-.3-.23-1.39-.07-1.77.37-2.44V5.32l1.11-1.78,1.95-1.4L17.7.68l3.78.55,3.3,2.38L26.3,6l1,1.77.24,4.39L26.79,16l-1.34,3.36-1.28,1.77"/><path class="cls-5" d="M21.17,32.62,12.45,33v1.46l.73,5.12-.37.43L6.72,37.93l-.43-.73-.61-6.89-1.4-4.15-.31-1,4.88-3.35,1.52-.61,1.35,1.64,1.15,1,1.35.42.61.19.73,3.17.55.67,1.4-.5-1,1.89,5.31,2.5-.67.36"/><path class="cls-6" d="M6.72,11.35,8.3,10.8l1.28.61.61,1.34.73-.12.19-.74-.37-1.4.37-3.35L10.8,5.31,11.9,4l2.38-1.89-.67-.92L10.25,2.87,8.85,4,8.06,5.68,6.84,7.32,6.47,9.27l.24,2.07"/><path class="cls-7" d="M9.22,5.61s.91-2.25,4.57-3.35.18-.79.18-.79L10,3,8.48,4.52,7.81,5.74l1.41-.12m-1.83,5.3S6.11,6.65,11,6l-.19-.73L7.44,6.1l-1,3.17.25,2.08.67-.43"/><path class="cls-8" d="M9.34,16.59l.8-.78a.52.52,0,0,1,.42.47c.06.43.24,4.27,2.88,6.35.25.18-1.95-.31-1.95-.31l-2-3.05m11-3.84s.14-1.85.64-1.7a.68.68,0,0,1,.5.64s-1.21.78-1.13,1.06"/><path class="cls-9" d="M25.62,8.68s-1,.21-1.1,1.09,1.1.19,1.28.13M18.24,8.73s-1.34.18-1.34,1,1.52.8,2,.43"/><path class="cls-8" d="M9.94,12.68s-2.32-1.41-2.57-.07-.79,2.32.37,3.72L7,16.09,6.22,14.2,6,12.37l1.41-1.46L9,11l.92.73.06.92m1.11-3.85s1-5.36,6.28-6.4c4.31-.85,6.58.19,7.43,1.16,0,0-3.84-4.57-7.5-3.17S10.94,4.4,11,6l.06,2.81M25.19,4.21s-1.77-.06-1.83,1.53a1.32,1.32,0,0,0,.12.5s1.4-1.59,2.26-.73m-8.3.88s-.31-2.43-2.38-1c-1.34.92-1.22,2.2-1,2.44s.18.73.38.4.12-1.44.79-1.75,1.77-.65,2.2-.08"/><path class="cls-10" d="M11.72,22.87,6,25.43s2.37,9.45,1.16,12.38l-.86-.31-.06-3.6L4.64,27.07,4,25.18l6-4,1.77,1.71m.59,5.23.81,1v3.66h-1L12,29.88c0-.3.12-1.4.12-1.4m.19,4.82-2.75.12.8.55,1.95.3"/><path class="cls-5" d="M21.72,32.69,24,32.62l.55,5.61-2.31.31-.5-5.86"/><path class="cls-5" d="M22.32,32.69l3.42-.19,1.4-3.72c0-.18,1.22-5.12,1.22-5.12L25.62,20.8l-.55-.5L23.6,21.76v5.67l-1.28,5.26"/><path class="cls-10" d="M23.85,32.26l-2.13.42.3,1.71c.79.37,2.13-.61,2.13-.61m-.24-12.19,4.27,3.17.12-1.46-3.23-3-1.16,1.28"/><path class="cls-11" d="M14.44,44.7l-1.25-5.13-.63-3.77L12.45,33l5.71-.3h3.56l-.33,6.4L21.94,44l-.06.91-4.64.37-2.8-.61"/><path class="cls-7" d="M20.92,32.62a54.37,54.37,0,0,0,.61,10.86A11.59,11.59,0,0,1,17,44.94l5.12-.18.61-.37-.73-10-.18-2.13"/><path class="cls-11" d="M24.62,37.75,27,37.08l4.51-.25.68-2.07L31,31.16,29.56,31l-1.95.61-1.87.91-1-.18-.78.3"/><path class="cls-7" d="M24.58,36.53a9.09,9.09,0,0,1,1.83-.67l-.67-3.36.79-.3.55,3.54,3.72.18a5.57,5.57,0,0,0,.55-2.87L32,35l.06,1.1-1,1.46-1.1.25-1.83-.07L27.57,37l-2.13.31-.67.24"/><path class="cls-12" d="M22.19,32.2l-1.34-3.41-1.41-2s.31-.86.73-.86h1.41l1.34.5-.12,2.26-.61,3.51"/><path class="cls-7" d="M22.45,31.05a28.26,28.26,0,0,1-1.71-3.78s.3-.73.73-.55,1.34.67,1.34.67V26.23l-2.07-.42-1.4.18,2.37,5.61.5.06"/><path class="cls-12" d="M15,23l-1.69-.18-1.58-.5v.55l.77.85,2.44,1.1"/><path class="cls-7" d="M12.27,23.18a6.8,6.8,0,0,0,2.5.61l.06.73-1.71-.37-1-.73.19-.24"/><path class="cls-1" d="M24.62,26.13a11.59,11.59,0,0,1-2.79-.39,6.13,6.13,0,0,1,0-.9,2,2,0,0,1,.95-.2,1.61,1.61,0,0,0-1.06-.12,2,2,0,0,0-.18-.56c.58-.21,2-1.57,2.73-1.12.37.21.53,1.44.55,2a2.05,2.05,0,0,1-.24,1.26"/><path class="cls-13" d="M24.62,26.13a11.59,11.59,0,0,1-2.79-.39,6.13,6.13,0,0,1,0-.9,2,2,0,0,1,.95-.2,1.61,1.61,0,0,0-1.06-.12,2,2,0,0,0-.18-.56c.58-.21,2-1.57,2.73-1.12.37.21.53,1.44.55,2a2.05,2.05,0,0,1-.24,1.26Z"/><path class="cls-1" d="M19.67,24.44v.23c-.32.22-.84.21-1.2.38a3,3,0,0,1,1.29.32l0,.6a21.31,21.31,0,0,1-1.83,1.38,4.72,4.72,0,0,1-1.84.56c-.2,0-.21-.29-.29-.52a7.72,7.72,0,0,1-.6-2c0-.94-.13-2.53.88-2.33a8.9,8.9,0,0,1,2.42.88,2.51,2.51,0,0,0,1.2.52"/><path class="cls-13" d="M19.67,24.44v.23c-.32.22-.84.21-1.2.38a3,3,0,0,1,1.29.32l0,.6a21.31,21.31,0,0,1-1.83,1.38,4.72,4.72,0,0,1-1.84.56c-.2,0-.21-.29-.29-.52a7.72,7.72,0,0,1-.6-2c0-.94-.13-2.53.88-2.33a8.9,8.9,0,0,1,2.42.88,2.51,2.51,0,0,0,1.2.52Z"/><path class="cls-1" d="M20.26,25.56a3.5,3.5,0,0,1-.16-1.11c1.38-.91,1.63,1.58.16,1.11"/><path class="cls-13" d="M20.26,25.56a3.5,3.5,0,0,1-.16-1.11C21.48,23.54,21.73,26,20.26,25.56Z"/><path class="cls-14" d="M22.25,26s-.43-.61-.13-.79.61,0,.8-.31,0-.5.06-.85.37-.43.67-.5,1.16-.18,1.28.12l-.37-1.1-.73-.24-2.31,1.34-.13.67v1.34M15.84,28l-.25-2.85c-.12-1.42.35-1.17,1.58-1.17a3.12,3.12,0,0,1,1.22.37c.33.67-.56.52.38,1s2.2-.25,1.88-1.23c-.18-.21-.94-.07-1.21-.21L18,23.2c-.6-.31-2-.77-2.65-.33-1.63,1.12.1,3.89.69,5.06"/><path class="cls-15" d="M17.44,6.39c-1.67-.38-2.5.69-3,1.82-.45-.11-.28-.72-.16-1a2.82,2.82,0,0,1,2.47-1.75c.42.06,1,.45.68,1m8.11,1.89h.07a17,17,0,0,0,1.18,2.29c-.32.75-2.4,1.39-2.37.07.45-.2,1.23,0,1.63-.3a4.31,4.31,0,0,1-.5-2.07m-7.25,0a6.79,6.79,0,0,0,1,1.83c.23.23.67.5.45,1.13a1.37,1.37,0,0,1-.64.53c-.8.24-2.63.05-2-.93.65,0,1.53.42,2,0-.37-.6-1.05-1.79-.8-2.49m6.93,6.62a6.6,6.6,0,0,1-4.48,1.41,1.35,1.35,0,0,1-.17-1.71c.21.38.08,1,.67,1.13,1.11.19,2.4-.67,3.19-1,.5-.83,0-1.14-.5-1.67C23.05,12,21.83,10.66,21.87,9c.37-.27.4.41.46.53A14.56,14.56,0,0,0,24.88,13c.21.23.57.46.61.61.12.45-.3,1-.25,1.29m-15.71-.8c-.37-.22-.46-1.16-.9-1.18-.63,0-.5,1.22-.51,1.95a2.3,2.3,0,0,1-.19-2.22c-.37-.17-.52.2-.72.33.26-1.87,2.75-.87,2.32,1.12M26,15.72A3.42,3.42,0,0,1,23,18a3.73,3.73,0,0,1,0-1.06,8.65,8.65,0,0,0,3-1.19m-7.8.69a10.37,10.37,0,0,0,4.35.56A4.52,4.52,0,0,1,22.64,18c-1.82.09-4-.36-4.44-1.64m-.19,1c.72,1.81,3.19,1.6,5.27,1.55a1.26,1.26,0,0,1-.54.63,5.3,5.3,0,0,1-3.43,0A4.66,4.66,0,0,1,18,18.15c-.16-.2-.93-.71,0-.71"/><path class="cls-16" d="M25.16,27.37l-2.65,4.2a20,20,0,0,0,.66-4.87,1.55,1.55,0,0,1,2,.67"/><path class="cls-15" d="M29.7,32.56c-.95.19-1.61,1.11-2.53,1a3,3,0,0,1,2.53-1M30.11,34a13.39,13.39,0,0,1-2.45.15c.37-.57,1.79-.37,2.45-.15m.27,1.28c-.87,0-1.94,0-2.76-.07.5-.52,2.2-.19,2.76.07"/><path class="cls-7" d="M23.54,38.79a21.32,21.32,0,0,1,.5,3.38,3.62,3.62,0,0,1-1.4.3L22.5,39c.32,0,.78-.23,1-.16"/><path class="cls-4" d="M22.14,22.79c-.43.29-.8.63-1.22.94a2.68,2.68,0,0,1-2.11-.59s.08,0,.09-.08c1,.45,2.24-.18,3.24-.26"/><path class="cls-16" d="M17,29.55c.27-1.18,1.33-1.79,2.3-2.44a19.58,19.58,0,0,1,2.28,4.47,23,23,0,0,1-4.58-2"/><path class="cls-15" d="M22.5,39c0,1,.1,2.51.14,3.52a3.62,3.62,0,0,0,1.4-.3,21,21,0,0,0-.5-3.37c-.26-.07-.72.17-1,.15Zm-10-5.48a50.44,50.44,0,0,0,2.16,10.59,14.1,14.1,0,0,0,7.69.14c-.41-1.94-.23-4.31-.46-6.38l-.34-4.71A26.47,26.47,0,0,0,12.53,33.47Zm9.68-.33c0,1.67.08,3.31.21,5l1.66-.29A34.36,34.36,0,0,0,23.52,33a4,4,0,0,0-1.31.15Zm3.25-.27a4.31,4.31,0,0,0-.95,0l.59,4.29a3.81,3.81,0,0,0,1.07-.28,8.64,8.64,0,0,0-.71-4Zm4.92,4.49a2.11,2.11,0,0,0,1.28-2.59,12.41,12.41,0,0,0-.84-2.84c-.25-.38-.93-.88-1.47-.53-.89.57-2.45.73-3.1,1.42a22,22,0,0,1,.56,3.93c1.11.07,2.47-.31,3.39.09a13.38,13.38,0,0,0-2,.51,4.21,4.21,0,0,0,2.21,0Zm-8.86-5.79a19.16,19.16,0,0,0-2.27-4.47c-1,.65-2,1.26-2.31,2.44a23.28,23.28,0,0,0,4.58,2Zm1.65-4.87a20,20,0,0,1-.66,4.87,36.41,36.41,0,0,0,2.65-4.2,1.55,1.55,0,0,0-2-.67ZM21.31,26c-.38,0-.71.43-1.2.23l-.33.38c1.09,1.31,1.58,3.17,2.42,4.71a20.73,20.73,0,0,0,.5-4.71c-.62,0-1-.56-1.39-.61Zm-1.2-1.59a3.48,3.48,0,0,0,.15,1.11C21.73,26,21.48,23.54,20.11,24.45Zm-1.64-.54A9.47,9.47,0,0,0,16.05,23c-1-.19-.92,1.39-.88,2.34a7.75,7.75,0,0,0,.6,2c.08.24.09.48.29.53a4.89,4.89,0,0,0,1.84-.56A19.89,19.89,0,0,0,19.73,26l0-.59a3.2,3.2,0,0,0-1.29-.33c.36-.18.88-.17,1.2-.37v-.24a2.45,2.45,0,0,1-1.2-.52Zm-6.08-1.1c-.53.54,1.48,1.27,2.12,1.31,0-.34.2-.66.16-.91a6.69,6.69,0,0,1-2.28-.4Zm6.5.25c0,.05-.07,0-.08.08a2.68,2.68,0,0,0,2.11.59l1.22-.94c-1,.09-2.26.71-3.25.27Zm6,1.81c0-.59-.18-1.82-.55-2-.77-.45-2.14.91-2.73,1.11a1.67,1.67,0,0,1,.18.56,1.75,1.75,0,0,1,1.06.12,2.23,2.23,0,0,0-.95.2,6.2,6.2,0,0,0,0,.91,11.61,11.61,0,0,0,2.79.38,2,2,0,0,0,.24-1.25ZM11.5,23.33c-.16-.12-1.28-1.58-1.44-1.52a24.17,24.17,0,0,0-5.62,3.5A30.4,30.4,0,0,1,6.82,37.12c1.85.87,3.48,2.11,6,2.24l-.73-5.83c-.63-.26-1.53,0-2.12-.08,0-.71.9-.31,1-.79s-.5-.39-.31-1c.46.17.7.54,1.19.68.45-1,0-2.73.06-3.55,0-.16.08-.86.43-.73s0,1.86,0,2.64a4.19,4.19,0,0,0,.21,1.88A68.7,68.7,0,0,1,20.05,32a17.27,17.27,0,0,1-2-.91c-.41-.23-1.69-.71-1.81-1.09-.19-.62.49-.95.61-1.48-1.23.67-1.47-.64-1.76-1.57A12.81,12.81,0,0,1,14.6,25a19,19,0,0,1-3.09-1.66ZM23.79,22c1.69-.82,2,3.06,1.33,4.31.11.38.46.52.6.85l-2.95,4.94c.72-.44,1.74-.08,2.58-.41.31-.12.53-.83.76-1.39a29.51,29.51,0,0,0,1.62-5,6.25,6.25,0,0,0,.21-1.37c-.07-.54-.8-.94-1.17-1.27l-1.83-1.73c-.29.42-.91.71-1.15,1.06ZM7.64,7c-.81.88-.63,2.54-.54,3.73a2.16,2.16,0,0,1,3.37,1.63c.69,0,.26-.87.13-1.42-.41-1.79.69-3.73.05-5.37A4.42,4.42,0,0,0,7.64,7ZM13.4,1.85c-1.83.52-4.16,1.85-4.91,3.48.58-.08,1-.37,1.55-.41a3.68,3.68,0,0,0,.75,0c.5-.12.92-1.23,1.29-1.65s.8-.57,1.1-.94c.2-.09.48-.09.49-.38a.32.32,0,0,0-.27-.13Zm9.49.49C21,1.27,17.8.47,15.78,1.47c-1.62.81-3.82,2.15-4.57,3.85C11.91,7,11,8.46,11,10.13c0,.88.42,1.66.45,2.62-.24.4-1,.44-1.48.42-.17-.86-.47-1.82-1.34-1.91a2,2,0,0,0-2.21,2c-.07,1.26,1,3.35,2.44,3.21.57-.06.71-.63,1.33-.62.33.67-.52.88-.61,1.36a3.76,3.76,0,0,0,.13.83,11.38,11.38,0,0,0,1.45,3.37c.74,1.07,2.2,1.23,3.77,1.33.28-.6,1.32-.55,2-.4a6.56,6.56,0,0,1-2.18-1.78,4.45,4.45,0,0,1-1.48-2.66c1.35,1.88,2.47,3.51,4.93,4.34,1.86.62,4-.29,5.46-1.29A6.28,6.28,0,0,0,25,19.23a14.17,14.17,0,0,0,2.15-8.64,9.54,9.54,0,0,0-.49-3.45c-.46-.91-2-1.72-2.89-.9-.17-.88.75-1.43,1.82-1.11a10,10,0,0,0-2.66-2.79Zm3.53,29.19c1.48-.74,4.24-2,5.17,0a17.08,17.08,0,0,1,.92,2.72c.25,1.06-.27,3.3-1.37,3.66a6.57,6.57,0,0,1-3.25.06,1.68,1.68,0,0,1-.4-.52,4.4,4.4,0,0,0-2.26.39c.06.61-.36.71-.75.84-.28,1.14.58,2.64.37,3.68-.14.74-1.06.86-1.73,1a5.61,5.61,0,0,0,.07,1.11,1.69,1.69,0,0,1-1.5,1c-2.15.25-5.41.37-7.48-.37-.58-1.42-1-3.14-1.5-4.76-2,.22-3.65-.87-5.19-1.58-.53-.25-1.27-.38-1.47-.81A7.5,7.5,0,0,1,5.89,36a28.61,28.61,0,0,0-.73-5.67c-.22-.87-.61-1.64-.89-2.48a18.89,18.89,0,0,1-.81-2.52c-.17-1.15.91-1.21,1.61-1.71,1.07-.77,1.91-1.2,3.07-1.9a6.94,6.94,0,0,0,1.5-1c.23-.48-.4-1.15-.57-1.53a4.58,4.58,0,0,1-.45-1.67,3.18,3.18,0,0,1-2.16-1.39,5.26,5.26,0,0,1-.61-4.6c.05-.12.3-.36.33-.54A5.24,5.24,0,0,0,6,9.78C6,7.8,6.37,6.1,7.7,5.5c.54-2.15,2.47-2.87,4.3-3.94A14,14,0,0,1,14.2.62c2.78-1,7.05-.83,9.36.92A12.54,12.54,0,0,1,26.66,5C28.14,8,28,13,27,16.59a11.62,11.62,0,0,1-.62,1.79c-.2.41-.81,1.23-.73,1.59s1.39,1.37,1.67,1.64c.51.49,1.47,1.14,1.55,1.76a6.25,6.25,0,0,1-.48,2.19l-2,6"/><path class="cls-8" d="M16.55,16.87c.08-.11.52-.27,1.14,0,0,0-.73.12-.67,1.34l-.31-.07s-.31-1.1-.16-1.3"/><path class="cls-17" d="M21.9,27.35a.34.34,0,1,1-.67,0,.34.34,0,0,1,.67,0m.33,1.56a.34.34,0,0,1-.67,0,.34.34,0,1,1,.67,0"/></g></g></svg>