<svg xmlns="http://www.w3.org/2000/svg" viewBox="0 0 479.65 373"><defs><style>.cls-1{fill:#231f20;}</style></defs><title>Asset 3</title><g id="Layer_2" data-name="Layer 2"><g id="Layer_1-2" data-name="Layer 1"><path class="cls-1" d="M467.8,322.54h-456A9.64,9.64,0,0,1,2.2,312.9V11.83a9.62,9.62,0,0,1,9.6-9.64h456a9.64,9.64,0,0,1,9.65,9.62V312.88a9.65,9.65,0,0,1-9.65,9.66ZM21.46,303.19H458.14V21.45H21.46Zm248.83,67.62h-61a.55.55,0,0,1-.55-.55V303.79a.55.55,0,0,1,.55-.54h61a.54.54,0,0,1,.54.54v66.47A.55.55,0,0,1,270.29,370.81ZM228.11,351.5h23.44v-29H228.11Zm74.45,19.31H177.07a9.66,9.66,0,0,1,0-19.31H302.56a9.66,9.66,0,0,1,0,19.31Zm165.24-97.9h-456a9.66,9.66,0,0,1,0-19.31h456a9.66,9.66,0,0,1,0,19.31Zm0,51.83h-456A11.84,11.84,0,0,1,0,312.9V11.83A11.8,11.8,0,0,1,11.8,0h456a11.83,11.83,0,0,1,11.83,11.81V312.88A11.86,11.86,0,0,1,467.8,324.74ZM11.84,4.39A7.41,7.41,0,0,0,4.4,11.83V312.88a7.45,7.45,0,0,0,7.44,7.47h456a7.48,7.48,0,0,0,7.46-7.47v-301a7.44,7.44,0,0,0-7.44-7.44h-456Zm448.49,301H19.27V19.26H460.33ZM23.66,301H455.94V23.65H23.66Zm248.7,72H207.27a.69.69,0,0,1-.68-.68V301.73a.67.67,0,0,1,.68-.68h65.09a.68.68,0,0,1,.67.68v70.59A.67.67,0,0,1,272.36,373ZM211,305.87v62.31a.43.43,0,0,0,.43.43h56.81a.43.43,0,0,0,.43-.43V305.87a.43.43,0,0,0-.43-.43H211.41A.43.43,0,0,0,211,305.87Zm42.77,47.83H225.91V320.35h27.84Zm-23.45-4.39h19V324.74h-19ZM302.57,373H177.07a11.85,11.85,0,0,1,0-23.69h125.5a11.83,11.83,0,0,1,11.83,11.86A11.86,11.86,0,0,1,302.57,373Zm-125.5-19.3a7.46,7.46,0,0,0,0,14.91h125.5a7.46,7.46,0,1,0,0-14.91ZM467.8,275.1h-456A11.85,11.85,0,0,1,0,263.24a11.88,11.88,0,0,1,11.83-11.85h456a11.86,11.86,0,0,1,0,23.71Zm0-19.32h-456a7.48,7.48,0,0,0-7.45,7.46,7.46,7.46,0,0,0,7.45,7.47h456a7.47,7.47,0,0,0,0-14.93Z"/></g></g></svg>